<svg xmlns="http://www.w3.org/2000/svg" xmlns:xlink="http://www.w3.org/1999/xlink" width="207.305" height="60.328" viewBox="0 0 207.305 60.328"><defs><clipPath id="a"><rect width="207.305" height="60.328" fill="#fff"/></clipPath></defs><g transform="translate(0 0)"><g transform="translate(0 0)" clip-path="url(#a)"><path d="M60.464,0a9.342,9.342,0,0,1,1.522.733,3.49,3.49,0,0,1,1.4,3.046q-.014,11.781,0,23.562c0,1.008,0,1.01,1.012,1.011,2.693,0,5.387.014,8.081,0,.478,0,.687.109.7.643a27.083,27.083,0,0,1-5.683,17.818,44.119,44.119,0,0,1-3.574,3.54,1.7,1.7,0,0,0-.511,1.007c-.052,1.735-.02,3.473-.025,5.21a3.439,3.439,0,0,1-3.7,3.752q-23.115.008-46.232,0a3.342,3.342,0,0,1-3.655-3.674q0-11.664,0-23.329c0-1.015,0-1.016-1.028-1.017-2.668,0-5.335-.011-8,0-.436,0-.735-.032-.748-.6a32.16,32.16,0,0,1,2.5-14.243A18.263,18.263,0,0,1,9.24,9.4a1.4,1.4,0,0,0,.527-.986c.056-1.553.023-3.109.025-4.665A3.3,3.3,0,0,1,12.412.131.847.847,0,0,0,12.6,0ZM59.287,52.694c-.439.084-.739.148-1.041.2a16.312,16.312,0,0,1-11.522-1.861A18.258,18.258,0,0,1,40.19,43.7a58.329,58.329,0,0,1-4.141-10.6.991.991,0,0,0-1.148-.816q-10.058.038-20.115,0c-.806,0-.983.243-.98,1.011.029,7.307.017,14.613.017,21.919,0,1.075,0,1.077,1.11,1.077H58.192a1.636,1.636,0,0,0,.614-.021c.189-.082.453-.284.459-.444.042-1,.021-2.009.021-3.134M13.867,7.431a1.332,1.332,0,0,0,.253.047c.1-.009.2-.033.3-.048A19.974,19.974,0,0,1,25.079,8.553c4.314,1.767,7.184,5.046,9.366,9.027A53.162,53.162,0,0,1,38.422,27.5a1.038,1.038,0,0,0,1.182.88q9.359-.047,18.717-.007c.8,0,.991-.226.987-1-.029-7.436-.017-14.872-.017-22.307V4.193H13.867ZM34.4,28.324a1.97,1.97,0,0,0-.023-.408,44.944,44.944,0,0,0-4.422-10.06c-3.692-5.819-9.48-7.5-15.269-6.424-.648.121-.888.378-.884,1.072q.047,7.463,0,14.927c-.005.775.249.941.973.939,6.266-.023,12.533-.008,18.8-.008.253,0,.507-.022.827-.037m5.556,4.017c.364,1.109.678,2.112,1.022,3.1a31.834,31.834,0,0,0,4.51,9.232A11.929,11.929,0,0,0,58.5,48.716a.967.967,0,0,0,.8-1.1q-.045-7.191,0-14.383c.005-.764-.237-.947-.969-.943-5.8.025-11.6.01-17.4.009-.275,0-.551.024-.976.043M9.792,14.322l-.2-.093a4.188,4.188,0,0,0-.54.514,32.362,32.362,0,0,0-2.209,3.079,24.632,24.632,0,0,0-2.815,9.905c-.05.482.151.646.616.64,1.37-.017,2.741-.01,4.111-.013,1.031,0,1.034,0,1.034-1.007q0-6.135,0-12.269Zm53.591,30.89.222.079a23.265,23.265,0,0,0,5.522-12.972c-1.892,0-3.64-.014-5.387.031-.125,0-.338.446-.341.688-.029,1.965-.016,3.931-.016,5.9v6.277" transform="translate(0 -0.001)" fill="#fff"/><path d="M221.295,24.078c1.074-3.218,2.122-6.332,3.14-9.456a1.717,1.717,0,0,0-.025-.966c-.253-.836-.568-1.655-.885-2.555h3.324l4.4,12.935c1.3-4.341,2.591-8.633,3.887-12.953h3.337a4.026,4.026,0,0,1-.1.485c-1.852,5.548-3.717,11.09-5.545,16.646a.878.878,0,0,1-1.024.733c-2.026-.036-2.027-.011-2.694-1.9-.987-2.794-1.973-5.588-2.975-8.427L222.5,28.9h-2.768c-2.073-5.9-4.145-11.8-6.267-17.847,1.21,0,2.35-.02,3.487.025.144.006.334.338.4.55q1.887,5.954,3.748,11.916c.046.144.1.285.2.536" transform="translate(-75.166 -3.89)" fill="#fff"/><path d="M176.757,23.318V11.1h3.206V28.791c-.912,0-1.834.041-2.748-.028-.233-.018-.473-.36-.652-.6q-4.394-5.785-8.772-11.583c-.086-.113-.185-.217-.377-.442v12.6h-3.222v-17.7c1,0,2-.031,3,.025.214.012.448.31.61.523q4.346,5.723,8.676,11.458a3.676,3.676,0,0,0,.283.268" transform="translate(-57.817 -3.886)" fill="#fff"/><path d="M251.023,28.749c.106-.328.172-.573.262-.809q3.15-8.183,6.293-16.367a.852.852,0,0,1,.939-.674c1.935.014,1.938-.01,2.663,1.8q3.042,7.6,6.08,15.2c.095.237.177.479.311.844-1.145,0-2.215.018-3.283-.021-.148-.005-.347-.268-.422-.452-.448-1.1-.881-2.211-1.287-3.329a.751.751,0,0,0-.828-.611c-1.708.033-3.418.027-5.127,0a.7.7,0,0,0-.788.544c-.383,1.1-.833,2.175-1.207,3.276a.773.773,0,0,1-.9.607c-.874-.038-1.751-.01-2.7-.01m10.264-7.155c-.693-2.006-1.361-3.935-2.08-6.018-.749,2.094-1.442,4.031-2.153,6.018Z" transform="translate(-88.392 -3.838)" fill="#fff"/><path d="M274.712,11.03c1.02,0,1.9.043,2.777-.015a.912.912,0,0,1,1.068.713c1.48,3.975,2.992,7.938,4.5,11.9.062.165.139.323.222.515,1.59-4.15,3.172-8.246,4.717-12.356.211-.562.441-.832,1.09-.779.873.071,1.757.017,2.748.017-.291.737-.55,1.4-.816,2.066-2.027,5.04-4.063,10.075-6.069,15.123a.954.954,0,0,1-1.071.713c-1.988-.038-1.987-.012-2.742-1.889q-3.01-7.489-6.021-14.977c-.123-.307-.238-.618-.4-1.036" transform="translate(-96.734 -3.876)" fill="#fff"/><path d="M195.348,11.081h9.777c-.272.852-.5,1.666-.809,2.449-.067.168-.428.308-.655.312-1.656.026-3.313.014-5.035.014v4.555h5.541v2.745h-5.539v4.908h6.486v2.711h-9.766Z" transform="translate(-68.788 -3.902)" fill="#fff"/><path d="M182.274,51.728a2.362,2.362,0,0,1,2.794,1.028c3.077,4.261,6.269,8.439,9.421,12.647.073.1.159.183.342.39v-14.1h1.949V69.244a2.028,2.028,0,0,1-2.391-.855c-3.227-4.409-6.543-8.753-9.828-13.12-.073-.1-.161-.185-.343-.393V69.283h-1.944Z" transform="translate(-64.184 -18.178)" fill="#fff"/><path d="M304.66,28.774V11.123h9.786c-.264.834-.5,1.667-.809,2.473-.056.149-.4.26-.62.263-1.657.021-3.313.012-5.034.012v4.555h5.54V21.17h-5.538v4.919h6.455v2.685Z" transform="translate(-107.28 -3.917)" fill="#fff"/><path d="M129.17,27.459l1.276-2.5a7.054,7.054,0,0,0,4.262,1.254,4.61,4.61,0,0,0,.771-.068c.864-.205,1.641-.552,1.866-1.527a2.116,2.116,0,0,0-.943-2.3,23.666,23.666,0,0,0-2.051-1.243c-.782-.454-1.607-.84-2.353-1.346a4.545,4.545,0,0,1-2.136-5.009,4.726,4.726,0,0,1,3.981-3.754,9.909,9.909,0,0,1,5.421.439.729.729,0,0,1,.6.831c-.043.769-.012,1.542-.012,2.313-.994-.3-1.913-.643-2.86-.851a6.911,6.911,0,0,0-1.925-.095,1.772,1.772,0,0,0-1.731,1.21A1.838,1.838,0,0,0,134,16.968a23.662,23.662,0,0,0,2.308,1.414c.67.388,1.381.71,2.032,1.126a4.879,4.879,0,0,1,2.5,5.112,4.813,4.813,0,0,1-3.958,4.073,9.718,9.718,0,0,1-7.075-.833c-.138-.071-.264-.163-.4-.246l-.243-.154" transform="translate(-45.484 -3.791)" fill="#fff"/><path d="M252.762,44.758c.19.489.074.73-.445.706-.181-.009-.362,0-.544,0H130.409c-.181,0-.363-.009-.544,0-.519.025-.636-.216-.446-.706Z" transform="translate(-45.542 -15.761)" fill="#fff"/><path d="M264.885,61.132c.369.48.739.885,1.024,1.342,1.377,2.217,2.731,4.449,4.194,6.84-.819,0-1.5.037-2.171-.024-.186-.017-.387-.3-.511-.5-.931-1.523-1.844-3.057-2.764-4.587-.16-.266-.347-.517-.49-.792a2.7,2.7,0,0,0-3.48-1.494v7.351h-1.956V51.634c2.139.1,4.287-.279,6.376.408a4.359,4.359,0,0,1,3.2,4.05,4.455,4.455,0,0,1-2.82,4.785c-.188.083-.378.162-.6.256m-4.177-7.854v6.939a23.272,23.272,0,0,0,3.026-.3,3.15,3.15,0,0,0,2.523-3.429,3.051,3.051,0,0,0-2.785-3.032c-.884-.143-1.795-.123-2.764-.181" transform="translate(-91.107 -18.177)" fill="#fff"/><path d="M242.847,51.675h1.9c0,4.334.218,8.643-.07,12.918-.227,3.367-3.017,5.2-6.686,5a6.786,6.786,0,0,1-4.325-1.448,5.5,5.5,0,0,1-1.883-4.2c-.065-4.065-.022-8.131-.022-12.254h2v.824c0,3.5-.016,7,.014,10.495a7.849,7.849,0,0,0,.3,2.062,3.416,3.416,0,0,0,2.739,2.566,7.945,7.945,0,0,0,2.536.1,3.8,3.8,0,0,0,3.427-3.889c.081-3.7.057-7.408.076-11.113,0-.334,0-.667,0-1.066" transform="translate(-81.604 -18.196)" fill="#fff"/><path d="M282.432,59.436h5.675v1.73h-5.7v6.4h6.586v1.748h-8.6V51.723h8.468a9.1,9.1,0,0,1-.535,1.408.917.917,0,0,1-.692.3c-1.707.025-3.414.014-5.2.014Z" transform="translate(-98.732 -18.213)" fill="#fff"/><path d="M151.842,51.635c-.561,1.435-1.072,2.754-1.592,4.069-1.722,4.354-3.457,8.7-5.158,13.064-.185.474-.416.652-.9.6-.417-.041-.82.1-1.051-.5-2.147-5.548-4.332-11.081-6.5-16.619-.064-.163-.1-.336-.19-.616a12.711,12.711,0,0,1,1.813.029c.213.032.457.359.553.6q2.536,6.547,5.037,13.109c.082.213.173.422.293.717.809-2.15,1.576-4.218,2.363-6.277.932-2.44,1.909-4.864,2.8-7.317.244-.667.538-.992,1.267-.878a8.9,8.9,0,0,0,1.263.01" transform="translate(-48.048 -18.171)" fill="#fff"/><path d="M164.12,51.719h8.458a11.454,11.454,0,0,1-.571,1.459c-.086.157-.419.247-.641.251-1.449.022-2.9.012-4.348.012h-.878V59.4h5.679v1.75h-5.672V67.59h6.6v1.7H164.12Z" transform="translate(-57.791 -18.212)" fill="#fff"/><path d="M307.291,54.2a8.3,8.3,0,0,0-4.4-.884,2.563,2.563,0,0,0-2.431,1.629,2.457,2.457,0,0,0,.82,2.935c.854.66,1.8,1.2,2.707,1.791a26.705,26.705,0,0,1,2.27,1.474,4.546,4.546,0,0,1,1.645,5,4.377,4.377,0,0,1-3.761,3.258,8.4,8.4,0,0,1-5.651-.754c-.223-.115-.427-.268-.689-.435l.807-1.516c.531.242,1.031.49,1.546.7a5.907,5.907,0,0,0,3.729.255,2.692,2.692,0,0,0,1.449-4.454,13.881,13.881,0,0,0-2.582-1.938c-1-.684-2.1-1.229-3.031-2a4.341,4.341,0,0,1,2.533-7.6,22.36,22.36,0,0,1,4.056.3,1,1,0,0,1,1,1.316,6.156,6.156,0,0,0-.007.93" transform="translate(-104.863 -18.18)" fill="#fff"/><rect width="3.158" height="17.674" transform="translate(98.868 7.198)" fill="#fff"/><path d="M208.712,53.48V51.744h12.6a11.065,11.065,0,0,1-.551,1.48c-.079.152-.439.213-.672.216-1.419.019-2.838.01-4.33.01V69.336h-2.036V53.48Z" transform="translate(-73.494 -18.221)" fill="#fff"/></g></g></svg>