<svg xmlns="http://www.w3.org/2000/svg" xmlns:xlink="http://www.w3.org/1999/xlink" width="23" height="23" viewBox="0 0 23 23"><defs><clipPath id="a"><rect width="23" height="23" transform="translate(0 0)" fill="#9aabab"/></clipPath></defs><g transform="translate(0 0)" clip-path="url(#a)"><path d="M21.591,0H1.721A1.7,1.7,0,0,0,0,1.681V21.634a1.7,1.7,0,0,0,1.721,1.682h19.87a1.705,1.705,0,0,0,1.725-1.682V1.681A1.7,1.7,0,0,0,21.591,0M6.915,19.868H3.456V8.741H6.915ZM5.185,7.221a2.005,2.005,0,1,1,2-2,2,2,0,0,1-2,2M19.869,19.868H16.412V14.457c0-1.291-.023-2.95-1.8-2.95-1.8,0-2.074,1.407-2.074,2.858v5.5H9.084V8.741H12.4v1.522h.047a3.634,3.634,0,0,1,3.272-1.8c3.5,0,4.148,2.3,4.148,5.3Z" transform="translate(0 -0.066)" fill="#9aabab"/></g></svg>