<svg xmlns="http://www.w3.org/2000/svg" width="319" height="321" viewBox="0 0 319 321"><g transform="translate(-1281.5 -855.5)"><g transform="translate(-318.5)"><line y2="321" transform="translate(1760.5 855.5)" fill="none" stroke="#354646" stroke-width="1"/><line x1="319" transform="translate(1600 1016)" fill="none" stroke="#354646" stroke-width="1"/></g><circle cx="2" cy="2" r="2" transform="translate(1462 877)" fill="#354646"/><circle cx="2" cy="2" r="2" transform="translate(1462 896)" fill="#354646"/><circle cx="2" cy="2" r="2" transform="translate(1462 915)" fill="#354646"/><circle cx="2" cy="2" r="2" transform="translate(1462 934)" fill="#354646"/><circle cx="2" cy="2" r="2" transform="translate(1462 953)" fill="#354646"/><circle cx="2" cy="2" r="2" transform="translate(1462 972)" fill="#354646"/><circle cx="2" cy="2" r="2" transform="translate(1462 991)" fill="#354646"/><circle cx="2" cy="2" r="2" transform="translate(1481 877)" fill="#354646"/><circle cx="2" cy="2" r="2" transform="translate(1481 896)" fill="#354646"/><circle cx="2" cy="2" r="2" transform="translate(1481 915)" fill="#354646"/><circle cx="2" cy="2" r="2" transform="translate(1481 934)" fill="#354646"/><circle cx="2" cy="2" r="2" transform="translate(1481 953)" fill="#354646"/><circle cx="2" cy="2" r="2" transform="translate(1481 972)" fill="#354646"/><circle cx="2" cy="2" r="2" transform="translate(1481 991)" fill="#354646"/><circle cx="2" cy="2" r="2" transform="translate(1500 877)" fill="#354646"/><circle cx="2" cy="2" r="2" transform="translate(1500 896)" fill="#354646"/><circle cx="2" cy="2" r="2" transform="translate(1500 915)" fill="#354646"/><circle cx="2" cy="2" r="2" transform="translate(1500 934)" fill="#354646"/><circle cx="2" cy="2" r="2" transform="translate(1500 953)" fill="#354646"/><circle cx="2" cy="2" r="2" transform="translate(1500 972)" fill="#354646"/><circle cx="2" cy="2" r="2" transform="translate(1500 991)" fill="#354646"/><circle cx="2" cy="2" r="2" transform="translate(1519 877)" fill="#354646"/><circle cx="2" cy="2" r="2" transform="translate(1519 896)" fill="#354646"/><circle cx="2" cy="2" r="2" transform="translate(1519 915)" fill="#354646"/><circle cx="2" cy="2" r="2" transform="translate(1519 934)" fill="#354646"/><circle cx="2" cy="2" r="2" transform="translate(1519 953)" fill="#354646"/><circle cx="2" cy="2" r="2" transform="translate(1519 972)" fill="#354646"/><circle cx="2" cy="2" r="2" transform="translate(1519 991)" fill="#354646"/><circle cx="2" cy="2" r="2" transform="translate(1538 877)" fill="#354646"/><circle cx="2" cy="2" r="2" transform="translate(1538 896)" fill="#354646"/><circle cx="2" cy="2" r="2" transform="translate(1538 915)" fill="#354646"/><circle cx="2" cy="2" r="2" transform="translate(1538 934)" fill="#354646"/><circle cx="2" cy="2" r="2" transform="translate(1538 953)" fill="#354646"/><circle cx="2" cy="2" r="2" transform="translate(1538 972)" fill="#354646"/><circle cx="2" cy="2" r="2" transform="translate(1538 991)" fill="#354646"/><circle cx="2" cy="2" r="2" transform="translate(1557 877)" fill="#354646"/><circle cx="2" cy="2" r="2" transform="translate(1557 896)" fill="#354646"/><circle cx="2" cy="2" r="2" transform="translate(1557 915)" fill="#354646"/><circle cx="2" cy="2" r="2" transform="translate(1557 934)" fill="#354646"/><circle cx="2" cy="2" r="2" transform="translate(1557 953)" fill="#354646"/><circle cx="2" cy="2" r="2" transform="translate(1557 972)" fill="#354646"/><circle cx="2" cy="2" r="2" transform="translate(1557 991)" fill="#354646"/><circle cx="2" cy="2" r="2" transform="translate(1576 877)" fill="#354646"/><circle cx="2" cy="2" r="2" transform="translate(1576 896)" fill="#354646"/><circle cx="2" cy="2" r="2" transform="translate(1576 915)" fill="#354646"/><circle cx="2" cy="2" r="2" transform="translate(1576 934)" fill="#354646"/><circle cx="2" cy="2" r="2" transform="translate(1576 953)" fill="#354646"/><circle cx="2" cy="2" r="2" transform="translate(1576 972)" fill="#354646"/><circle cx="2" cy="2" r="2" transform="translate(1576 991)" fill="#354646"/></g></svg>