<svg xmlns="http://www.w3.org/2000/svg" width="223.5" height="40.45" viewBox="0 0 223.5 40.45"><path d="M-98.075-13.6c5.2,0,7,1.95,7,5.3,0,3.15-2.1,5.35-6.7,5.35h-9.1V-13.6Zm-.4-13.4c4.2,0,5.9,1.7,5.9,5.1,0,4-2.6,5.45-6.2,5.45h-8.1V-27Zm-12,27h12.85c7.2,0,10.15-3.35,10.15-8.1,0-4.15-2.45-6.3-7.35-6.85v-.45c3.6-.85,5.8-3.1,5.8-6.95,0-5.05-3.05-7.65-9.65-7.65h-11.8Zm31.5-32.1h-3.4V0h3.4ZM-62.125.55c7.3,0,11.5-4.7,11.5-12.25,0-7.6-4.6-12.1-11.5-12.1s-11.5,4.5-11.5,12.1C-73.625-4.15-69.475.55-62.125.55Zm0-21.3c5.2,0,8.05,3.4,8.05,9s-2.7,9.25-8.1,9.25-8-3.65-8-9.25S-67.325-20.75-62.125-20.75Zm26.5,21.3c7.3,0,11.5-4.7,11.5-12.25,0-7.6-4.6-12.1-11.5-12.1s-11.5,4.5-11.5,12.1C-47.125-4.15-42.975.55-35.625.55Zm0-21.3c5.2,0,8.05,3.4,8.05,9s-2.7,9.25-8.1,9.25-8-3.65-8-9.25S-40.825-20.75-35.625-20.75Zm20,7.35c0-4.35,3.1-7.25,7.75-7.25,4.05,0,5.6,2.7,5.6,6.2V0h3.45V-13.4c0-4.35,3-7.25,7.75-7.25,4.05,0,5.6,2.7,5.6,6.2V0h3.45V-15.2c0-5.1-2.5-8.6-7.9-8.6-4.9,0-7.7,2.75-8.75,6.95h-.5c-.45-4.2-2.8-6.95-7.45-6.95-4.3,0-7.35,2.5-8.65,6.55h-.4v-6h-3.4V0h3.45ZM35.425-2.5c-4.65,0-7.65-3.35-7.65-8.2v-1.75c0-5.05,3-8.2,7.65-8.2,4.85,0,7.15,2.9,7.15,9.05C42.575-5.5,40.225-2.5,35.425-2.5Zm-7.65-29.6h-3.45V0h3.45V-6.35h.25c1.1,4,4.1,6.9,8.85,6.9,5.7,0,9.15-4.3,9.15-12.15s-3.3-12.2-9.4-12.2c-4.75,0-7.4,2.85-8.55,6.8h-.3Zm33.05,11.15c4.85,0,7.05,2.8,7.25,7.65H53.025C53.525-18.4,56.325-20.95,60.825-20.95Zm.2,21.5c5.85,0,8.95-2.8,10.1-7.4l-3.05-.9c-.85,2.95-2.45,5.35-7.05,5.35-5,0-7.75-3.05-8.05-8.25h18.2a23.144,23.144,0,0,0,.1-2.45c0-6.4-3.5-10.7-10.35-10.7s-11.4,4.55-11.4,12.25C49.525-3.95,53.825.55,61.025.55ZM79.825,0V-11.95c0-5.6,2.3-7.8,7.45-7.8h1.1V-23.5h-.95c-3.75,0-6.25,2-7.4,6.5h-.3v-6.25h-3.35V0Zm21.1-20.35c4.3,0,6.6,1.95,6.6,5.15,0,3.3-2,5.1-6.55,5.1-4.5,0-6.3-1.85-6.3-5.1C94.675-18.35,96.575-20.35,100.925-20.35Zm.5,25.95c-6.6,0-8.45-.95-8.45-3.25,0-1.5,1.35-3.25,4.55-3.25h8.55c2.8,0,4,1.25,4,2.85C110.075,4.35,108.475,5.6,101.425,5.6Zm11.6-3.75c0-3.45-2.45-5.45-7-5.45-2.6,0-5.4.05-8.05.05-1.65,0-2.55-.4-2.55-1.45a2.989,2.989,0,0,1,.75-1.7l.85-1.25a13.416,13.416,0,0,0,3.9.5c6.4,0,9.7-2.55,9.7-7.1,0-3.6-2.75-5.1-6.05-5.75l.05-.4c2.15.2,3.65.3,4.9.3h2.85v-2.85h-11.05c-6.2,0-9.85,2.8-9.85,8.1a6.987,6.987,0,0,0,5.05,7.05l-1.75,1.2c-1.25.75-2.2,1.7-2.2,2.85,0,1.65,1.1,2.55,2.6,2.95v.2c-3.3.65-5.15,2.15-5.15,4.2,0,3.1,2.6,5.05,11.3,5.05C110.175,8.35,113.025,6.3,113.025,1.85Z" transform="translate(110.475 32.1)" fill="#fff"/></svg>