<svg xmlns="http://www.w3.org/2000/svg" width="234.553" height="50.816" viewBox="0 0 234.553 50.816"><g transform="translate(0 0)"><path d="M0,35.87c.18-.136.421-.235.53-.414,1.412-2.33,2.8-4.671,4.2-7.009q3.4-5.679,6.8-11.359c2.132-3.577,4.246-7.166,6.377-10.744,1.175-1.973,2.37-3.934,3.552-5.9.349-.582.5-.592.863,0,1.013,1.65,2.011,3.309,3.023,4.961Q28.769,10.99,32.2,16.573q3.119,5.1,6.227,10.206c.763,1.249,1.512,2.506,2.306,3.735a1.194,1.194,0,0,1,.048,1.473c-.751,1.175-1.437,2.392-2.154,3.589-.109.182-.244.348-.455.645-.567-.907-1.069-1.695-1.557-2.491q-3.931-6.423-7.854-12.851c-2.121-3.48-4.228-6.968-6.354-10.444a2.211,2.211,0,0,0-.537-.448,4.813,4.813,0,0,0-.4.5c-1.126,1.871-2.243,3.747-3.367,5.62q-2.9,4.836-5.806,9.669c-.273.455-.146.681.374.678,2.436-.013,4.872-.018,7.307-.052a1.231,1.231,0,0,1,1.246.7c.725,1.27,1.544,2.486,2.312,3.732a2.934,2.934,0,0,1,.212.6,2.554,2.554,0,0,1-.62.159q-6.8-.01-13.6-.047a1.084,1.084,0,0,0-1.034.614c-.672,1.172-1.368,2.33-2.037,3.5a1.188,1.188,0,0,1-1.185.7C3.515,36.307,1.757,36.3,0,36.276V35.87" transform="translate(0 -0.001)" fill="#fff"/><path d="M161.106,141.784c-.9-1.462-1.777-2.871-2.643-4.285q-3.669-5.99-7.331-11.985c-1.62-2.652-3.228-5.311-4.851-7.961-1.364-2.226-2.759-4.434-4.092-6.678a1.328,1.328,0,0,1-.031-1.106c.7-1.331,1.5-2.616,2.253-3.919.239-.41.562-.417.815,0,2.239,3.7,4.463,7.4,6.715,11.091q4.1,6.716,8.235,13.41c.165.269.311.55.48.816.339.538.51.542.843-.017,1.959-3.288,3.9-6.584,5.867-9.869q3.169-5.306,6.358-10.6c1-1.661,1.966-3.337,2.995-4.977a1.2,1.2,0,0,1,.855-.469c1.555-.047,3.112-.028,4.668-.019.165,0,.446.049.47.133a.765.765,0,0,1-.106.538q-3.375,5.655-6.768,11.3-2.985,4.982-5.965,9.966-2.665,4.466-5.318,8.939-1.554,2.611-3.116,5.219c-.09.15-.2.286-.335.47" transform="translate(-122.825 -90.968)" fill="#fff"/><path d="M653.316,166.825c.163,1.122.115,1.177-.873,1.151-.338-.009-.676-.017-1.015-.017H486.718c-.519,0-1.038.009-1.556.023-.422.012-.7-.2-.608-.6a.917.917,0,0,1,.589-.541,4.876,4.876,0,0,1,1.144-.017H653.316" transform="translate(-418.954 -144.221)" fill="#fff"/><path d="M1069.329,34.967a6.963,6.963,0,0,0-.51.663q-2.565,4.286-5.113,8.582c-.2.329-.349.682-.537,1.015-.3.534-.517.541-.845,0-1.019-1.672-2.026-3.352-3.038-5.027q-1.414-2.34-2.833-4.676a2.3,2.3,0,0,0-.378-.343,3.487,3.487,0,0,0-.137.641c.012,2.5.024,5.007.058,7.511.016,1.185.228,1.353,1.389,1.4.292.013.829.223.822.3-.048.521-.494.371-.836.372-1.328,0-2.657.018-3.985-.01a2.241,2.241,0,0,1-.72-.291c.221-.128.453-.381.662-.363,1.38.12,1.573-.527,1.566-1.593-.019-2.8.006-5.594-.014-8.391-.009-1.185-.212-1.351-1.4-1.375-.157,0-.347.037-.462-.036a.686.686,0,0,1-.331-.433c0-.108.25-.31.4-.322.424-.032.855.018,1.283.026.674.012,1.35.052,2.02.011a.983.983,0,0,1,.994.538q2.714,4.434,5.44,8.861c.395.641.578.638.968-.008,1.79-2.968,3.57-5.943,5.38-8.9a1.091,1.091,0,0,1,.73-.478c1.1-.067,2.2-.073,3.3-.053.234,0,.463.214.695.33a5.782,5.782,0,0,1-.693.458c-.129.063-.311.007-.468.021-.794.074-.976.251-1.02,1.047-.036.653-.056,1.308-.054,1.962.006,2.323,0,4.647.046,6.969.021,1.131.258,1.319,1.381,1.341a.951.951,0,0,1,.4.022,2.181,2.181,0,0,1,.4.363c-.151.109-.293.294-.453.312a9.161,9.161,0,0,1-.943-.046c-1.419,0-2.839.02-4.258.033a1.547,1.547,0,0,1-.535,0c-.157-.061-.269-.237-.4-.363a1.623,1.623,0,0,1,.383-.3,1.421,1.421,0,0,1,.469-.025c1.142-.019,1.367-.24,1.378-1.407.017-1.782.016-3.564.031-5.346.006-.744.039-1.488.046-2.232a6.829,6.829,0,0,0-.063-.7l-.217-.068" transform="translate(-910.186 -28.176)" fill="#fff"/><path d="M1448.974,38.46c0-1.376.018-2.752-.006-4.127-.015-.846-.184-.986-1.051-1.054-.157-.012-.352.038-.464-.038a2.152,2.152,0,0,1-.394-.472,2.543,2.543,0,0,1,.455-.3,1.154,1.154,0,0,1,.4,0c1.123,0,2.246-.024,3.368.014a2.705,2.705,0,0,1,.835.33c-.259.159-.5.427-.778.458-1,.112-1.15.164-1.163,1.175-.044,3.45-.046,6.9-.049,10.351,0,.762-.13.793-.861.677a4.869,4.869,0,0,1-2.61-1.686q-4.475-4.366-8.942-8.741a.6.6,0,0,0-.442-.2c-.109.028-.234.263-.233.405.03,2.706.066,5.411.128,8.116.024,1.05.21,1.18,1.245,1.256.229.017.443.231.665.354a2,2,0,0,1-.662.287c-1.26.034-2.522.042-3.783.016-.207,0-.409-.222-.613-.34.19-.11.374-.3.572-.318,1.208-.1,1.322-.162,1.341-1.355.046-2.955.06-5.91.071-8.865,0-.878-.183-1.048-1.072-1.125-.179-.016-.387.04-.534-.033a2.041,2.041,0,0,1-.447-.424c.157-.121.314-.344.472-.346,1.1-.008,2.2.007,3.3.071a1.248,1.248,0,0,1,.665.411q4.891,4.813,9.772,9.636a4.447,4.447,0,0,0,.744.488,5.946,5.946,0,0,0,.121-.827c.013-1.263.006-2.527.006-3.79h-.06" transform="translate(-1239.865 -28.052)" fill="#fff"/><path d="M1340.6,219.034c0,1.488-.01,2.977,0,4.465.008.886.3,1.132,1.178,1.2a3.262,3.262,0,0,1,.856.326,2.8,2.8,0,0,1-.842.307c-1.531.031-3.063.016-4.6.015a1.846,1.846,0,0,1-.536-.021c-.126-.039-.218-.186-.325-.285.1-.107.2-.218.307-.319.028-.026.086-.021.13-.03,1.587-.3,1.608-.3,1.615-1.925.011-2.774,0-5.548-.019-8.321-.005-.853-.28-1.11-1.139-1.148-.135-.006-.292.041-.4-.013a3.264,3.264,0,0,1-.5-.366c.172-.105.344-.3.515-.3,2.884.01,5.769,0,8.65.106a4.141,4.141,0,0,1,2.122.729,2.354,2.354,0,0,1,.291,3.788,5,5,0,0,1-2.935,1.508c-.164.028-.433.11-.448.2a.715.715,0,0,0,.171.53c1.413,1.516,2.827,3.034,4.281,4.511a6.3,6.3,0,0,0,1.19.716,3.772,3.772,0,0,1,.454.394,1.824,1.824,0,0,1-.574.23,14.006,14.006,0,0,1-1.956-.039,1.5,1.5,0,0,1-.86-.418c-1.568-1.649-3.1-3.329-4.655-4.994-.214-.23-.486-.408-.686-.648a2.882,2.882,0,0,1-.306-.6,2.359,2.359,0,0,1,.634-.154,4.391,4.391,0,0,0,3.647-1.205,2.206,2.206,0,0,0,.409-2.4,1.938,1.938,0,0,0-1.744-1.3c-1.047-.072-2.1-.051-3.153-.056-.561,0-.784.289-.775.855.023,1.556.008,3.112.008,4.668h-.012" transform="translate(-1155.463 -183.843)" fill="#fff"/><path d="M825.479,223.212a3.782,3.782,0,0,0,.13-.638c-.014-2.662-.026-5.324-.063-7.985-.015-1.092-.195-1.238-1.294-1.4-.2-.029-.373-.234-.558-.357.193-.1.383-.293.578-.3q1.79-.041,3.58,0c.2,0,.4.181.6.278-.178.129-.343.345-.536.374-1.115.166-1.273.277-1.282,1.4-.027,3.293-.02,6.587-.027,9.881a2.2,2.2,0,0,1-.029.671c-.05.148-.3.377-.371.348-.693-.268-1.466-.224-2.073-.852-2.9-3-5.854-5.945-8.785-8.914-.2-.207-.355-.47-.566-.669a.64.64,0,0,0-.451-.172c-.081.009-.2.242-.2.373.035,2.8.087,5.591.13,8.387a.9.9,0,0,0,.919.961,1.66,1.66,0,0,1,.467.036,1.961,1.961,0,0,1,.412.351c-.14.089-.277.247-.421.253-.449.018-.9-.039-1.351-.034-.834.008-1.667.055-2.5.047-.188,0-.374-.166-.561-.255.178-.129.343-.344.536-.374,1.223-.185,1.288-.182,1.312-1.412.057-2.954.069-5.909.081-8.864,0-.747-.37-1.1-1.126-1.154a1.874,1.874,0,0,1-.534-.037c-.141-.057-.237-.223-.353-.341.129-.1.254-.277.387-.282.471-.021.946.016,1.419.033a1.631,1.631,0,0,0,.4.024c1.293-.3,2.1.36,2.938,1.258,2.77,2.967,5.62,5.858,8.445,8.772a8.052,8.052,0,0,0,.741.591" transform="translate(-701.357 -183.754)" fill="#fff"/><path d="M876.846,30.113q2.53.4,5.061.8a.555.555,0,0,1,.506.725c-.087.555-.138,1.119-.274,1.661a.735.735,0,0,1-.477.427c-.106.026-.427-.273-.407-.383.24-1.381-.79-1.624-1.71-1.884a10.937,10.937,0,0,0-6.276,0,5.107,5.107,0,0,0-3.926,5.45,5.816,5.816,0,0,0,4.332,5.338,10.942,10.942,0,0,0,6,.024.733.733,0,0,0,.614-.831c-.019-.541,0-1.083,0-1.624,0-.6-.286-.924-.914-.911a8.16,8.16,0,0,1-1.283-.026c-.187-.026-.349-.237-.522-.364.18-.133.359-.376.541-.378.629-.005,1.258.11,1.888.111.9,0,1.79-.073,2.685-.082a1.69,1.69,0,0,1,.561.213c-.088.161-.141.42-.269.465a.907.907,0,0,0-.606.957,16.872,16.872,0,0,0,.039,2.023.706.706,0,0,1-.582.883,17.084,17.084,0,0,1-9.736.321,7.17,7.17,0,0,1-4.554-3.244,5.7,5.7,0,0,1,1.684-7.454,13.237,13.237,0,0,1,7.63-2.216" transform="translate(-749.475 -26.037)" fill="#fff"/><path d="M1281.641,45.434c-1.779,0-3.559.005-5.338-.009-.149,0-.3-.132-.444-.2.095-.152.158-.392.29-.441a.944.944,0,0,0,.6-1.027c.023-3.135.034-6.269.057-9.4a.777.777,0,0,0-.844-.9,1.1,1.1,0,0,1-.466-.036,4.518,4.518,0,0,1-.6-.484c.213-.11.426-.317.639-.317,2.434,0,4.867.04,7.3.058q1.622.012,3.245-.023c.424-.009.653.113.589.579-.076.558-.105,1.126-.228,1.673-.048.213-.3.382-.452.571-.131-.2-.352-.389-.376-.6-.107-.93-.309-1.2-1.248-1.237-1.486-.058-2.975-.051-4.462-.076-.5-.009-.743.2-.744.722,0,1.15-.031,2.3-.059,3.45-.013.529.192.8.755.782,1.127-.028,2.254-.023,3.381-.041.627-.01,1.019-.254,1.035-.967,0-.2.242-.4.373-.6.15.208.419.41.429.624.045.988.037,1.979,0,2.967-.007.181-.246.353-.378.529-.151-.156-.4-.291-.436-.47-.233-1.125-.336-1.239-1.5-1.263-.969-.02-1.939,0-2.908-.031-.505-.015-.775.174-.776.69,0,1.308-.007,2.616,0,3.924,0,.387.166.661.6.653,1.78-.032,3.561-.08,5.341-.1a1.25,1.25,0,0,0,1.351-1.05,1.211,1.211,0,0,1,.158-.443c.167-.222.412-.608.562-.581.489.089.276.49.223.816a8.647,8.647,0,0,0-.154,1.409c0,.605-.22.839-.845.825-1.555-.035-3.111-.011-4.667-.011,0,.015,0,.03,0,.045" transform="translate(-1102.339 -28.199)" fill="#fff"/><path d="M676.874,38.559c0-1.74.023-2.936-.007-4.13-.024-.961-.208-1.109-1.185-1.141-.406-.013-.953.162-.957-.482,0-.107.654-.305,1.009-.313,1.619-.037,3.239-.035,4.858-.009.262,0,.733.182.744.311.045.519-.409.47-.766.491-.225.013-.451.023-.673.054a.786.786,0,0,0-.765.861c0,2.436-.038,4.873.024,7.308a2.532,2.532,0,0,0,2.236,2.592,9.8,9.8,0,0,0,5.656-.288,2.527,2.527,0,0,0,1.649-2.126,17.185,17.185,0,0,0,.141-2.291c.014-1.579,0-3.158-.023-4.737-.019-1.183-.184-1.327-1.4-1.374-.09,0-.205.03-.266-.014-.194-.141-.368-.309-.55-.467.189-.112.377-.317.568-.321q2.224-.04,4.449,0c.181,0,.357.228.535.35-.17.147-.324.392-.514.425-1.687.288-1.69.277-1.715,1.972-.032,2.12-.052,4.24-.1,6.359a3.422,3.422,0,0,1-2.17,3.09,11.107,11.107,0,0,1-6.873.664,4.7,4.7,0,0,1-2.693-1.127,3.065,3.065,0,0,1-.949-1.551c-.2-1.536-.209-3.1-.264-4.109" transform="translate(-583.401 -28.069)" fill="#fff"/><path d="M1502.4,225.016c1.271-.573,1.022-1.68,1.036-2.66.037-2.57.035-5.142.025-7.712,0-1.105-.147-1.213-1.217-1.37-.222-.033-.417-.253-.625-.386.2-.1.4-.294.6-.294,3.358-.008,6.716.007,10.075.018.461,0,.637.171.525.677-.116.522-.075,1.079-.179,1.605-.039.2-.295.353-.452.528-.143-.169-.385-.323-.411-.508-.186-1.313-.172-1.328-1.532-1.359-1.239-.028-2.479-.023-3.718-.04-.579-.008-.852.2-.834.842.03,1.081-.008,2.165-.052,3.247-.023.558.2.783.748.772,1.037-.02,2.074-.032,3.111-.019a.925.925,0,0,0,1.087-.92c.025-.212.263-.4.4-.6.109.212.306.421.313.637.033.945.03,1.893,0,2.839a2.03,2.03,0,0,1-.288.661c-.147-.172-.364-.322-.429-.521-.392-1.2-.38-1.211-1.676-1.233-.834-.014-1.669,0-2.5-.03-.53-.019-.8.16-.795.729.015,1.285.005,2.571,0,3.856,0,.42.185.626.612.62q2.671-.038,5.342-.068c.678-.008.822-.536.993-1.024a4.641,4.641,0,0,1,.206-.776c.092-.161.342-.23.522-.341.093.183.276.372.262.546a14.658,14.658,0,0,1-.295,2.136.81.81,0,0,1-.635.412c-2.389.015-4.779-.015-7.169-.024-.721,0-1.441.032-2.162.035-.25,0-.5-.043-.75-.067l-.13-.211" transform="translate(-1298.374 -183.816)" fill="#fff"/><path d="M660.554,224.968c1.185-.452,1.027-1.428,1.036-2.314.027-2.706.041-5.413.028-8.119,0-1.013-.191-1.143-1.169-1.277-.238-.033-.448-.267-.671-.409a2.093,2.093,0,0,1,.689-.273c3.314-.007,6.628.01,9.942.018.492,0,.689.163.56.707-.118.5-.069,1.035-.167,1.54-.04.207-.273.377-.419.564-.151-.182-.411-.352-.434-.549-.146-1.222-.176-1.284-1.38-1.311-1.307-.029-2.615-.026-3.922-.043-.555-.007-.807.208-.793.809.025,1.1-.008,2.211-.048,3.315-.019.533.21.738.718.731,1.06-.015,2.12-.026,3.18-.018a.91.91,0,0,0,1.041-.9c.033-.224.291-.415.446-.62a2.086,2.086,0,0,1,.276.667c.029.946.024,1.894-.006,2.84a1.97,1.97,0,0,1-.255.624c-.162-.179-.407-.333-.474-.542-.375-1.178-.36-1.185-1.562-1.2-.857-.012-1.715,0-2.571-.033-.563-.023-.84.164-.831.764.018,1.263.012,2.527,0,3.79-.005.509.246.665.715.658,1.646-.027,3.292-.025,4.938-.061.867-.019,1.117-.267,1.329-1.133a3.194,3.194,0,0,1,.274-.819.508.508,0,0,1,.454-.182.5.5,0,0,1,.246.41,19.129,19.129,0,0,1-.336,2.334c-.037.161-.455.334-.7.334-2.435.008-4.871-.023-7.306-.033-.653,0-1.307.041-1.96.044a6.064,6.064,0,0,1-.734-.082l-.134-.232" transform="translate(-570.478 -183.802)" fill="#fff"/><path d="M493.08,40.692c-.879,0-1.759-.036-2.634.021a1.177,1.177,0,0,0-.81.438c-.467.713-.858,1.478-1.254,2.235-.25.477-.044.833.508.9a6.515,6.515,0,0,1,.806.043c.174.046.311.237.465.363-.173.107-.345.3-.52.3-.539.008-1.079-.088-1.618-.087-.81,0-1.621.074-2.431.066a1.943,1.943,0,0,1-.662-.282c.2-.127.392-.363.585-.359a1.4,1.4,0,0,0,1.319-.783q2.566-4.441,5.115-8.891c.391-.683.743-1.388,1.144-2.064s.9-.656,1.293.053q2.781,5.054,5.559,10.11a4.091,4.091,0,0,0,.758,1.1,4.366,4.366,0,0,0,1.057.464,3.186,3.186,0,0,1,.479.342c-.168.112-.334.318-.5.321q-2.564.047-5.13.021c-.166,0-.331-.223-.5-.342.162-.119.309-.3.489-.342a7.172,7.172,0,0,1,.875-.03c.52-.045.721-.377.477-.839-.42-.8-.847-1.59-1.336-2.344a1.1,1.1,0,0,0-.764-.407c-.921-.049-1.846-.019-2.769-.019v0m.118-5.936c-.141.124-.248.18-.3.268-.8,1.454-1.615,2.905-2.39,4.375-.253.48-.06.65.527.642,1.393-.02,2.786-.005,4.18-.016.192,0,.5-.013.547-.116a.8.8,0,0,0-.048-.621c-.7-1.354-1.43-2.7-2.157-4.039a4.613,4.613,0,0,0-.362-.494" transform="translate(-419.294 -27.758)" fill="#fff"/><path d="M1167.439,217.6c0-1.083.015-2.165,0-3.248-.015-.825-.331-1.089-1.149-1.183a3.912,3.912,0,0,1-.959-.378,4.281,4.281,0,0,1,1.005-.278c1.215-.035,2.432-.032,3.647,0,.218.005.432.2.648.3-.213.125-.417.336-.641.36-1.353.143-1.449.219-1.463,1.544-.022,2.075-.046,4.15-.045,6.225a3.766,3.766,0,0,1-1.845,3.528,5.015,5.015,0,0,1-1.4.642,11.391,11.391,0,0,1-7.1-.349,2.774,2.774,0,0,1-1.918-2.538c-.055-1.713-.052-3.427-.08-5.141-.014-.9-.031-1.8-.062-2.706-.03-.874-.308-1.127-1.2-1.2-.346-.026-.849.165-.883-.414a1.845,1.845,0,0,1,.9-.26c1.486-.027,2.973-.012,4.46-.009a3.176,3.176,0,0,1,.673.027c.124.028.222.174.331.267-.094.111-.17.286-.287.32a3.373,3.373,0,0,1-.734.079c-.793.048-1.115.343-1.119,1.125-.013,2.278-.031,4.557,0,6.834.03,2,.938,2.684,2.583,3a8.307,8.307,0,0,0,4.857-.323,2.088,2.088,0,0,0,1.46-1.467c.206-1.235.259-2.5.363-3.746.028-.336,0-.676,0-1.015h-.043" transform="translate(-997.795 -183.728)" fill="#fff"/><path d="M1664.919,219.377a4.051,4.051,0,0,1-2.024,3.143,8.148,8.148,0,0,1-5.6,1.256c-.739-.076-1.475-.2-2.2-.342a.868.868,0,0,1-.8-1.1c.085-.531.042-1.081.1-1.617.019-.16.2-.3.311-.45.13.13.375.262.371.388-.042,1.478.956,1.91,2.131,2.151a5.646,5.646,0,0,0,4.649-.718,2.245,2.245,0,0,0-1.021-4.149c-1.148-.227-2.321-.327-3.473-.541a3.63,3.63,0,0,1-2.386-1.261,3.142,3.142,0,0,1,.619-4.342,5.952,5.952,0,0,1,2.9-1.161,10.216,10.216,0,0,1,4.841.587c.4.134.5.375.4.783-.108.458-.113.941-.225,1.4-.043.174-.262.3-.4.455-.114-.153-.334-.314-.324-.459.078-1.127-.632-1.51-1.543-1.8a4.914,4.914,0,0,0-3.8.263,2.163,2.163,0,0,0,.923,4.1c1.114.167,2.23.32,3.346.47a3.411,3.411,0,0,1,2.773,1.668,7.414,7.414,0,0,1,.431,1.279" transform="translate(-1430.366 -182.048)" fill="#fff"/><path d="M1645.735,32.91c0,.9.024,1.671-.018,2.434-.01.173-.249.333-.383.5-.174-.142-.451-.254-.5-.432-.149-.519.088-1.245-.56-1.484a5.185,5.185,0,0,0-1.6-.117c-.609-.017-1.219.005-1.827-.02-.506-.021-.747.161-.746.7.007,3.136-.013,6.273,0,9.409,0,.816.306,1.064,1.133,1.083a2.642,2.642,0,0,1,.672.036c.161.048.286.215.427.329-.147.115-.287.313-.443.327-.378.033-.763-.038-1.146-.036-1.42.007-2.84.027-4.26.04a1.416,1.416,0,0,1-.53-.024c-.138-.058-.227-.233-.337-.356.115-.092.22-.241.347-.264a5.57,5.57,0,0,1,.875-.053c.623-.012,1-.315,1-.945.007-3.226,0-6.453-.006-9.68,0-.4-.208-.563-.592-.56-1.083.009-2.166-.006-3.248.025-.647.019-.756.525-.841,1.041-.06.367.1.976-.473.946-.61-.032-.407-.636-.425-1.037s-.01-.812-.027-1.218c-.019-.455.188-.668.643-.662,1.714.025,3.427.063,5.141.064,2.255,0,4.51-.027,6.765-.043.286,0,.573,0,.962,0" transform="translate(-1411.302 -28.438)" fill="#fff"/><path d="M492.425,222.826a9.182,9.182,0,0,0,.478-.785q1.822-3.915,3.627-7.838c.259-.562.113-.812-.511-.913a4.284,4.284,0,0,1-.735-.069c-.178-.064-.308-.264-.459-.4.162-.092.319-.248.488-.263.379-.034.765.009,1.148.007.855,0,1.71-.031,2.564-.01.184,0,.365.17.547.261l-.466.374c-.388.311-.933.541-1.139.945-1.8,3.526-3.531,7.086-5.31,10.623a1.049,1.049,0,0,1-.715.549,1.1,1.1,0,0,1-.833-.485c-.918-1.8-1.764-3.64-2.656-5.455-.862-1.755-1.761-3.491-2.622-5.246a1.435,1.435,0,0,0-1.24-.9c-.178-.017-.336-.231-.5-.355.191-.109.38-.31.573-.313q2.33-.038,4.661,0c.188,0,.373.214.559.329a2.7,2.7,0,0,1-.61.377c-.228.069-.5-.006-.734.046-.406.089-.563.324-.362.745q1.933,4.05,3.855,8.1c.091.19.215.364.4.667" transform="translate(-418.566 -183.77)" fill="#fff"/><path d="M1008.176,219.061c0,1.511-.01,3.021,0,4.532.008.894.291,1.155,1.175,1.2.332.016.79-.135.829.391a1.715,1.715,0,0,1-.851.256q-2.33.041-4.662,0a2.106,2.106,0,0,1-.709-.306,2.248,2.248,0,0,1,.711-.333c1.08-.078,1.321-.277,1.323-1.342.006-3-.02-6-.006-9,0-.609-.194-.858-.824-.825-.9.046-1.8.045-2.7.026a.727.727,0,0,0-.856.792,2.492,2.492,0,0,1-.126.8.606.606,0,0,1-.434.333c-.114,0-.325-.247-.336-.4-.049-.673-.06-1.351-.048-2.027.008-.457.369-.427.693-.424,1.893.017,3.786.043,5.679.043q2.873,0,5.746-.047c.546-.009.793.135.72.738-.065.534,0,1.083-.046,1.62-.016.18-.207.345-.318.516-.149-.145-.3-.289-.446-.436-.013-.013-.009-.043-.014-.065-.379-1.429-.379-1.432-1.863-1.454-.631-.01-1.264.019-1.893-.015-.567-.03-.754.21-.746.757.021,1.555.008,3.111.008,4.667h-.007" transform="translate(-865.22 -183.94)" fill="#fff"/></g></svg>