<svg xmlns="http://www.w3.org/2000/svg" xmlns:xlink="http://www.w3.org/1999/xlink" width="28.553" height="23.205" viewBox="0 0 28.553 23.205"><defs><clipPath id="a"><rect width="28.553" height="23.205" fill="#9aabab"/></clipPath></defs><g transform="translate(0)"><g transform="translate(0 0)" clip-path="url(#a)"><path d="M8.979,23.2c10.775,0,16.667-8.927,16.667-16.667q0-.381-.017-.757a11.921,11.921,0,0,0,2.922-3.033,11.706,11.706,0,0,1-3.364.922A5.879,5.879,0,0,0,27.764.429a11.726,11.726,0,0,1-3.72,1.422,5.863,5.863,0,0,0-9.983,5.343A16.632,16.632,0,0,1,1.987,1.073,5.861,5.861,0,0,0,3.8,8.893,5.813,5.813,0,0,1,1.147,8.16c0,.024,0,.049,0,.075a5.86,5.86,0,0,0,4.7,5.743,5.831,5.831,0,0,1-2.645.1,5.865,5.865,0,0,0,5.473,4.069A11.756,11.756,0,0,1,1.4,20.655,11.918,11.918,0,0,1,0,20.573,16.585,16.585,0,0,0,8.979,23.2" transform="translate(0 0)" fill="#9aabab"/></g></g></svg>