<svg xmlns="http://www.w3.org/2000/svg" xmlns:xlink="http://www.w3.org/1999/xlink" width="322" height="322" viewBox="0 0 322 322"><defs><clipPath id="a"><rect width="159.601" height="41.459" fill="none"/></clipPath></defs><g transform="translate(95.297 140.271)"><g transform="translate(-14.297 -0.271)" clip-path="url(#a)"><path d="M32.344,6.139c0,1.126-.011,2.156,0,3.184.033,2.485.069,4.97.125,7.455a.583.583,0,0,1-.494.684c-1.275.377-1.266.391-1.734-.857a15.976,15.976,0,0,0-2.634-4.859,7.393,7.393,0,0,0-5.733-2.793c-2.164-.032-4.329,0-6.493-.03-.479-.007-.593.187-.6.6-.024.9-.083,1.8-.1,2.693-.06,2.925-.108,5.851-.161,8.777-.022,1.2-.034,2.408-.075,3.612-.016.479.155.633.639.6,1.374-.093,2.752-.136,4.127-.212a3.571,3.571,0,0,0,3.127-2.016,16.406,16.406,0,0,0,1.088-2.993c.116-.406.243-.542.636-.511.32.025.644.005,1.008.005V32.946a9.917,9.917,0,0,1-1.251-.019c-.133-.017-.31-.242-.345-.4a8.475,8.475,0,0,0-1.617-3.8A3.536,3.536,0,0,0,19.2,27.432c-1.376-.062-2.752-.128-4.126-.219-.473-.031-.654.12-.636.6q.169,4.612.3,9.226a15.631,15.631,0,0,0,.724,4.786A3.4,3.4,0,0,0,18.6,44.287a17.59,17.59,0,0,1,1.745.306c.716.139.3.705.38,1.074.081.4-.239.4-.52.4q-3.591,0-7.183,0-6.149,0-12.3-.005c-.281,0-.678.163-.708-.4-.048-.912-.013-1.024.611-1.148.542-.107,1.083-.223,1.629-.308a3.21,3.21,0,0,0,2.584-2.174,12.129,12.129,0,0,0,.783-4.372c.107-6.023.229-12.048.209-18.071-.008-2.607-.324-5.215-.551-7.819a5.66,5.66,0,0,0-.49-1.634A3.553,3.553,0,0,0,1.58,7.922,11.433,11.433,0,0,1,.385,7.789C.248,7.761.137,7.579.028,7.454,0,7.421.021,7.343.022,7.286.039,5.954-.139,6.143,1.129,6.142q15.113-.008,30.226,0Z" transform="translate(0 -5.428)" fill="#fff"/><path d="M1219.177,108.236c-.331-.823-.616-1.631-.974-2.406a8.123,8.123,0,0,0-3.4-4.124,5.263,5.263,0,0,0-3.714-.568,3.912,3.912,0,0,0-2.94,3.295,4.039,4.039,0,0,0,1.812,4.158,24.9,24.9,0,0,0,5.156,2.6,13.789,13.789,0,0,1,4.85,2.978,6.858,6.858,0,0,1,1.868,4.673,9.029,9.029,0,0,1-2.1,6.538,10.4,10.4,0,0,1-5.953,3.308,20.626,20.626,0,0,1-7.863.023c-1.684-.291-3.335-.771-5-1.169a.577.577,0,0,1-.5-.641c-.024-2.466-.052-4.934-.13-7.4-.024-.765.565-.649.961-.775.1-.031.382.277.46.476a15.263,15.263,0,0,0,2.838,5.006,6.286,6.286,0,0,0,6.541,2.01,4.011,4.011,0,0,0,3.016-3.275,3.7,3.7,0,0,0-1.634-4.2,26.322,26.322,0,0,0-3.985-1.988,21.772,21.772,0,0,1-4.617-2.263,7.407,7.407,0,0,1-3.017-6.919,8.934,8.934,0,0,1,6.315-7.869,17.756,17.756,0,0,1,7.2-.6,20.654,20.654,0,0,1,5.3,1.147.747.747,0,0,1,.582.827c.01,1.911.071,3.823.1,5.734.019,1.122.012,1.122-1.162,1.411" transform="translate(-1062.242 -87.621)" fill="#fff"/><path d="M505.425,98.13v6.375c.163-.274.28-.448.375-.634a11.507,11.507,0,0,1,3.626-4.44,7.018,7.018,0,0,1,6.842-.947c.522.2.62.443.409.983-.909,2.322-1.767,4.663-2.671,7.071-.211-.108-.389-.2-.564-.29a7.639,7.639,0,0,0-6.928-.508,1.706,1.706,0,0,0-1.2,1.776c.039,3.23-.094,6.463-.044,9.693a57.636,57.636,0,0,0,.443,6.047c.213,1.749,1.135,2.458,2.906,2.54.532.025,1.062.089,1.583.134.037.082.08.133.08.184.011,1.519.174,1.236-1.158,1.239q-7.526.018-15.052,0c-.242,0-.665-.073-.693-.187a3.68,3.68,0,0,1-.007-1.129c0-.054.179-.115.283-.137.354-.076.709-.152,1.068-.2a2.256,2.256,0,0,0,2.058-1.806,20.623,20.623,0,0,0,.46-3.787q.138-5.189.115-10.381a41.764,41.764,0,0,0-.324-5.024c-.27-2.129-.937-2.713-3.038-2.959-.4-.047-.683-.072-.7-.6-.013-.511.22-.638.653-.724,3.718-.741,7.433-1.5,11.149-2.251.09-.018.184-.021.326-.036" transform="translate(-436.565 -86.716)" fill="#fff"/><path d="M711.787,19.246c-1.268-3.266-3.347-5.817-6.756-6.965a11.81,11.81,0,0,0-9.17.85c-.177.085-.363.152-.561.234V0a1.513,1.513,0,0,0-.247,0c-3.826.7-7.652,1.4-11.474,2.127a.6.6,0,0,0-.36.41c-.11.661.009.785.7.867a2.9,2.9,0,0,1,2.871,2.565,15.842,15.842,0,0,1,.342,2.832c.079,2.982.146,5.966.128,8.949-.044,7.21-.132,14.419-.226,21.628-.007.566.146.81.711.9,1.941.294,3.869.679,5.815.932a22.955,22.955,0,0,0,7.7-.158,13.463,13.463,0,0,0,9.566-6.92,17.161,17.161,0,0,0,1.924-6.831,17.726,17.726,0,0,0-.961-8.057m-9,15.356a10.138,10.138,0,0,1-2.048,3.349,4.8,4.8,0,0,1-4.341,1.43c-1.036-.131-1.03-.146-1.047-1.185-.039-2.331-.1-4.663-.119-6.994s0-4.663,0-6.995h.006c0-2.81,0-5.619-.006-8.428a.532.532,0,0,1,.432-.611,5.325,5.325,0,0,1,4.99.417,6.99,6.99,0,0,1,2.254,2.911,15.5,15.5,0,0,1,1.335,5.817A24.337,24.337,0,0,1,702.791,34.6" transform="translate(-604.614 0)" fill="#fff"/><path d="M274.293,106.329a11.419,11.419,0,0,0-7.176-6.728,16.021,16.021,0,0,0-7.3-.624,12.8,12.8,0,0,0-9.257,5.419c-2.02,2.838-2.809,6.056-2.8,10.15a17.4,17.4,0,0,0,1.06,5.92,11.975,11.975,0,0,0,7.652,7.675,15.872,15.872,0,0,0,7.017.622,12.593,12.593,0,0,0,10.219-6.686c2.751-5.115,2.712-10.439.582-15.747m-8.011,16.361a7.455,7.455,0,0,1-1.5,2.995,3.641,3.641,0,0,1-5.906-.312,12.663,12.663,0,0,1-1.97-5.016,39.005,39.005,0,0,1-.481-10.038,23.114,23.114,0,0,1,.941-5.795,6.324,6.324,0,0,1,1.667-2.9c1.752-1.578,4.2-1.195,5.656.867a12.484,12.484,0,0,1,2.029,5.534c.3,2.035.423,4.094.534,5.23-.1,3.788-.184,6.65-.97,9.433" transform="translate(-219.269 -87.455)" fill="#fff"/><path d="M971.458,112.511c5.19,0,10.38-.007,15.57.009.492,0,.69-.109.648-.635a22.367,22.367,0,0,0-.906-5.4,10.347,10.347,0,0,0-6.375-6.968,13.1,13.1,0,0,0-6.167-.509,12.482,12.482,0,0,0-9.538,6.029,17.035,17.035,0,0,0-2.029,13.009,13.146,13.146,0,0,0,7.064,9.377,14.276,14.276,0,0,0,9.592,1.187,12.919,12.919,0,0,0,7.411-4.27c.667-.774.649-.822-.177-1.551-.616.367-1.216.778-1.861,1.1a9.855,9.855,0,0,1-5.358.857,8.526,8.526,0,0,1-6.411-3.429,13.511,13.511,0,0,1-2.354-7.88c-.038-.926-.017-.927.891-.927m-.8-2.815a17,17,0,0,1,1.4-5.92,5.864,5.864,0,0,1,1.906-2.533,2.5,2.5,0,0,1,3.729.715,9.012,9.012,0,0,1,1.288,3.935c.17,1.341.191,2.7.272,4.052a1.753,1.753,0,0,1-.049.324c-.483.032-.956.079-1.43.091q-3.186.077-6.372.136c-.816.016-.8.013-.748-.8" transform="translate(-851.535 -87.496)" fill="#fff"/></g><rect width="322" height="322" transform="translate(-95.297 -140.271)" fill="none"/></g></svg>