<svg xmlns="http://www.w3.org/2000/svg" xmlns:xlink="http://www.w3.org/1999/xlink" width="322" height="322" viewBox="0 0 322 322"><defs><clipPath id="a"><rect width="175.425" height="35.068" fill="none"/></clipPath></defs><g transform="translate(277.385 144.466)"><g transform="translate(-203.386 -1.466)" clip-path="url(#a)"><path d="M148,5.449V29.706h11.953c3.34,0,5.273-.527,6.679-1.758,1.758-1.582,2.637-4.394,2.637-10.371s-.879-8.789-2.637-10.371c-1.406-1.23-3.34-1.758-6.679-1.758Zm16.347,12.129c0,5.273-.352,6.5-1.406,7.207-.7.527-1.582.7-3.34.7h-6.68v-16h6.68c1.758,0,2.637,0,3.34.7,1.055.879,1.406,2.109,1.406,7.383m11.074,17.49H140.357V0h35.068ZM111.707,9.492V5.449h20.742v7.734h-4.4V9.492h-8.437v5.8h6.68V19.16h-6.68v6.5h8.614V21.445h4.393v8.262H111.708V25.663h3.338V9.492ZM92.9,23.378a28.517,28.517,0,0,0,.526,6.152h4.747a49.978,49.978,0,0,1-.352-6.5c-.177-3.516-1.232-4.043-3.693-4.57,2.812-.527,4.044-1.758,4.044-6.152,0-3.516-.529-4.922-1.583-5.8-.7-.7-1.932-1.055-3.867-1.055H77.956V29.706h4.922V20.214h6.857a3.893,3.893,0,0,1,2.461.527c.529.352.7.879.7,2.637M82.878,16.347V9.668h7.911c1.055,0,1.406.176,1.581.352.352.352.7.879.7,2.988s-.352,2.812-.7,3.164c-.174.176-.526.352-1.581.352ZM105.2,35.068H70.048V0h35.067V35.068Zm-44.3-9.4v4.043h-16.7V25.663h5.976V9.492H44.207V5.449h16.7V9.492H54.929V25.663ZM32.694,5.449h-4.57l-3.34,19.16L20.917,6.855c-.176-1.23-.7-1.406-1.758-1.406H16.7c-1.055,0-1.582.352-1.758,1.406L11.074,24.609,7.734,5.449H2.812L7.558,28.476c.176,1.055.527,1.23,1.758,1.23h3.34c1.055,0,1.406-.176,1.758-1.23l3.691-16.7,3.691,16.7c.176,1.055.527,1.23,1.758,1.23h3.164c1.055,0,1.582-.176,1.758-1.23Zm2.461,29.619H0V0H35.068V35.068Z" transform="translate(0 0)" fill="#fff"/></g><rect width="322" height="322" transform="translate(-277.385 -144.466)" fill="none"/></g></svg>