<svg xmlns="http://www.w3.org/2000/svg" xmlns:xlink="http://www.w3.org/1999/xlink" width="322" height="322" viewBox="0 0 322 322"><defs><clipPath id="a"><rect width="242.318" height="48.315" fill="none"/></clipPath></defs><g transform="translate(227.841 -34.158)"><g transform="translate(-187.841 171.158)" clip-path="url(#a)"><path d="M68.62,13.695h12.2v2.5H76.343V28.75H73.107V16.2H68.62ZM85.77,28.75V22.137H91.5V28.75h3.236V13.695H91.46v5.941H85.77V13.695H82.534V28.75H85.77m11.592,0h10.326v-2.5H100.6V22.223h6.425v-2.5H100.6V16.2h6.863v-2.5h-10.1ZM120.6,25.021h-.039l-2.314-11.326h-3.338l3.674,15.055h3.666l2.923-11.467h.039l2.712,11.467h3.58l3.838-15.055h-3.088l-2.423,11.326h-.039l-2.626-11.326h-3.643Zm15.837-3.791c0,4.44,2.251,7.84,7.238,7.84s7.238-3.392,7.238-7.84-2.251-7.84-7.238-7.84-7.238,3.392-7.238,7.84m3.439,0c0-2.587.61-5.511,3.8-5.511s3.8,2.923,3.8,5.511-.61,5.5-3.8,5.5-3.8-2.923-3.8-5.5m16.4,1.454H159.7c1.063.039,1.266,1.188,1.352,2.025.141,1.36.289,2.712.563,4.041h3.564c-.6-.836-.727-2.6-.875-3.564-.274-2.087-.274-3.611-2.751-3.877v-.039a3.619,3.619,0,0,0,3.127-3.65c0-3.064-2.65-3.9-5.237-3.924h-6.4V28.75h3.236Zm0-6.488h2.7c1.423.023,2.251.586,2.251,1.915s-.836,2.04-2.251,2.064h-2.7ZM176.9,28.75v-2.5h-6.527V13.695H167.15V28.75Zm1.751,0h5.128c4.69.039,7.613-2.29,7.613-7.527s-2.923-7.574-7.613-7.527h-5.128ZM181.892,16.2h1.673c3.838-.039,4.4,2.626,4.4,5.026s-.563,5.065-4.4,5.026h-1.673ZM205.28,28.75c2.314.164,6.066-.915,6.066-3.9a3.843,3.843,0,0,0-3.314-3.916v-.039a3.51,3.51,0,0,0,2.65-3.291c0-2.939-2.751-4.065-5.44-3.9h-5.651V28.758h5.691Zm-2.47-2.5v-4h2.525c1.524,0,2.564.274,2.564,2s-1.04,2-2.564,2Zm0-6.5V16.2h2.525c1.352,0,2.1.563,2.1,1.774s-.75,1.774-2.1,1.774Zm12.624,9,1.126-3.189h5.964l1.087,3.189h3.252l-5.229-15.055h-3.838L212.346,28.75Zm1.962-5.691,2.2-6.425h.047l2.064,6.425H217.4m24.716,5.691V13.695h-3.025V25.5l-.039.047L233.31,13.7h-4.792V28.758h3.025V16.282l.039-.047,5.941,12.515ZM248,13.695H244.77V28.75H248V21.074h.039l5.237,7.676H257.3l-6-8.317,5.526-6.738h-3.775l-5,6.511h-.039V13.695Z" transform="translate(-14.982 -2.923)" fill="#fff"/><path d="M44.946,14.164a1.12,1.12,0,0,0-.594,1.47,21.871,21.871,0,0,1,1.071,13.789,7.846,7.846,0,0,1-1.72,2.939c.016-.383.031-.766.031-1.157a28.869,28.869,0,0,0-3.392-13.148,8.724,8.724,0,0,0,3.009-5.034,1.132,1.132,0,0,0-.9-1.313,1.114,1.114,0,0,0-1.305.9,6.356,6.356,0,0,1-1.931,3.432c-.32-.532-.657-1.055-1.008-1.579a32.61,32.61,0,0,0-6.879-7.387,21.523,21.523,0,0,1,9.036,2.454A1.118,1.118,0,0,0,41.8,7.848C38.177,2.791,31.916,0,24.161,0A24.145,24.145,0,0,0,.93,30.782c.039.141.07.281.109.422a.811.811,0,0,0,.031.078A24.142,24.142,0,0,0,37.7,44.149c.039-.023.078-.039.109-.063.235-.156.453-.32.672-.492a24.2,24.2,0,0,0,9.106-13.57c.078-.25.149-.516.2-.774a1.538,1.538,0,0,0,.023-.188,24.263,24.263,0,0,0-1.4-14.312,1.12,1.12,0,0,0-1.47-.586m-8.591,1.571c.367.547.719,1.094,1.055,1.657a15.364,15.364,0,0,1-6.519,1.837,62.818,62.818,0,0,0-1.4-10.717,30.319,30.319,0,0,1,6.863,7.223m-3.338-11.9A17.305,17.305,0,0,1,36.324,5.6a28.126,28.126,0,0,0-5.378-.774,6.966,6.966,0,0,1,2.071-.985m-2.97-.93a14.7,14.7,0,0,0-1.931,1.258,11.739,11.739,0,0,0-.946-1.751,25.226,25.226,0,0,1,2.877.492M19.362,19.315a26.108,26.108,0,0,0,5.214,1.7,23.967,23.967,0,0,0,4.166.508c.023.844.039,1.712.039,2.6a75.888,75.888,0,0,1-1.032,13.116,37.869,37.869,0,0,1-6.16-.789,36.222,36.222,0,0,1-7.793-2.6,57.3,57.3,0,0,1,4.549-12.515c.32-.688.664-1.36,1.016-2.017m-3.924-5.19a10.27,10.27,0,0,1-2.111-2.689,30.516,30.516,0,0,1,6.918-3.049,32.181,32.181,0,0,1,4.463-1,52.272,52.272,0,0,0-6.269,8.935,16.237,16.237,0,0,1-3-2.2m13.21,5.136a21.134,21.134,0,0,1-3.6-.453,23.581,23.581,0,0,1-4.6-1.47A48.622,48.622,0,0,1,27.1,8.106,59.372,59.372,0,0,1,28.648,19.26M24.13,2.251c.383.008.852.461,1.344,1.352q-.375-.164-.75-.3a20.972,20.972,0,0,0-3.017-.907,20.689,20.689,0,0,1,2.423-.141M12.71,7.778a5.441,5.441,0,0,1,2.032-3.072,14.117,14.117,0,0,1,8.88.578,35.432,35.432,0,0,0-4.033.946,32.4,32.4,0,0,0-6.957,3,5.317,5.317,0,0,1,.078-1.454m-2.1-.813c-.031.117-.063.227-.086.352a7.121,7.121,0,0,0,.063,3.22,27.021,27.021,0,0,0-6.2,5.855,22.429,22.429,0,0,0-1.376,2.056,21.942,21.942,0,0,1,7.6-11.483m.36,34.675A22,22,0,0,1,3.088,30.157a12.031,12.031,0,0,1-.36-2.228A20.036,20.036,0,0,0,5.48,31.048a27.977,27.977,0,0,0,5.769,4.041,20.775,20.775,0,0,0-.281,6.55M7.012,29.391A14.342,14.342,0,0,1,3.119,23.9a17.423,17.423,0,0,1,3.064-6.16,24.253,24.253,0,0,1,5.261-5.073,12.755,12.755,0,0,0,2.462,3.088,18.382,18.382,0,0,0,3.455,2.525c-.36.672-.7,1.36-1.04,2.056a63.124,63.124,0,0,0-4.581,12.444,24.513,24.513,0,0,1-4.729-3.392M24.177,46.056a.962.962,0,0,0-.156.016,21.806,21.806,0,0,1-9.349-2.157,1.048,1.048,0,0,0-.219-.141c-1.251-.61-1.751-3.392-1.1-7.645a38.655,38.655,0,0,0,7.754,2.517,38.794,38.794,0,0,0,6.183.821c-.993,4.323-2.267,6.589-3.111,6.589m12.944-4.244a21.774,21.774,0,0,1-9.693,4.018A22.346,22.346,0,0,0,29.6,39.513a28.954,28.954,0,0,0,8.849-1.4c.672-.227,1.305-.477,1.915-.75a10.687,10.687,0,0,1-3.244,4.448m4.1-7.426a16.831,16.831,0,0,1-3.478,1.595,26.342,26.342,0,0,1-7.707,1.274,82.621,82.621,0,0,0,.985-13.14c0-.875-.008-1.759-.039-2.634a17.415,17.415,0,0,0,7.5-2.134,26.479,26.479,0,0,1,3.009,11.842,18.106,18.106,0,0,1-.274,3.2" transform="translate(0 0)" fill="#fff"/></g><rect width="322" height="322" transform="translate(-227.841 34.158)" fill="none"/></g></svg>