<svg xmlns="http://www.w3.org/2000/svg" xmlns:xlink="http://www.w3.org/1999/xlink" width="322" height="322" viewBox="0 0 322 322"><defs><clipPath id="a"><rect width="128.824" height="109.354" fill="none"/></clipPath></defs><g transform="translate(385.589 -49.677)"><g transform="translate(-288.589 155.677)" clip-path="url(#a)"><path d="M10.392,160.165l.332.276a17.9,17.9,0,0,1,.166-7.57,115.021,115.021,0,0,0,3.122-11.466c.553-3.067,1.188-6.52.829-9.477a15.375,15.375,0,0,1-1.713,4.559c-3.343,5.167-6.769,11.245-4.421,17.82-.055.083-.138.166-.221.111-.939-2.183-1.16-4.642-1.768-6.962C5.087,141.295.362,136.128,1.744,129a23.311,23.311,0,0,0-1.409,4.973c-.829,4.365,0,8.979,1.188,13.013,1.464,5,6.355,8.592,8.869,13.179" transform="translate(0 -93.359)" fill="#fff"/><path d="M32.563,62.747a16.979,16.979,0,0,1,5.056-6.023c4.752-3.592,9.946-8.233,10.029-14.312-1.6,4.365-6.382,6.189-9.559,9.173a14.657,14.657,0,0,0-3.73,5.47l-.111-.083c.387-1.768,1.133-3.343,1.658-5.056,1.381-4.642,1.133-10.195,5.664-13.317a12.553,12.553,0,0,0-6.023,4.034C31.873,46.7,32.2,52.691,32.674,58a21.079,21.079,0,0,1-.111,4.752" transform="translate(-23.442 -27.935)" fill="#fff"/><path d="M53.012,33.3c2.542-2.376,5.47-4.144,7.625-6.962,2.569-3.4,4.807-7.211,8.178-10.14-4.559,1.768-9.477,3.592-12.433,8.289-1.741,2.735-2.017,5.968-3.371,8.814" transform="translate(-38.366 -11.724)" fill="#fff"/><path d="M24.233,83.376a22.94,22.94,0,0,0,2.1-7.239A7.791,7.791,0,0,1,24.4,78.983c-3.7,3.509-8.04,6.935-8.869,11.908a18.036,18.036,0,0,1-.387,2.127c-.166.083-.166-.111-.221-.166l.47-6.134c.442-6-2.708-12.654.746-17.931-.111-.028-.193.083-.276.111-3.15,4.006-5.249,8.427-5.249,13.814,0,6.658,3.84,11.328,4.31,17.572.995-6.52,6.465-11.162,9.311-16.909" transform="translate(-7.68 -49.78)" fill="#fff"/><path d="M9.351,214.408c3.564,2.818,7.819,5,11.079,7.487-.635-1.63-1.685-3.122-2.1-4.807-1.906-7.708-.856-16.66-4.144-23.788.608,4.061-.995,7.653-1.354,11.521a17.217,17.217,0,0,0,1.492,8.924,14.356,14.356,0,0,1,1.216,2.321,16.239,16.239,0,0,1-2.846-3.757c-3.84-6.216-11.88-10.25-12.433-17.82a23.713,23.713,0,0,0,1.133,9.919c1.52,4.089,4.5,7.266,7.957,10" transform="translate(-0.119 -139.894)" fill="#fff"/><path d="M122.039,343.6c-6.216,0-11.8,3.012-17.24,5.277-4.946,2.045-11.493,1.658-15.886-1.381a18.2,18.2,0,0,0,8.068,5.526c5.553,2.21,12.046.525,16.8-2.514,3.4-2.183,6.327-5.277,10.388-5.277,6.548,0,13.427,6.714,19.312,12.792a21.66,21.66,0,0,0,2.625-2.376c-6.161-5.857-14.864-12.046-24.064-12.046" transform="translate(-64.347 -248.668)" fill="#fff"/><path d="M83,304.893c.967-.249,2.127-.166,3.012-.5-3.7-.746-7.266-1.879-10.14-4.5-4.117-3.757-7.764-7.764-12.157-10.692,3.454,4.642,4.421,11.383,10.72,13.731a18.534,18.534,0,0,1,3.371,1.105,8.8,8.8,0,0,1-3.4-.442c-8.123-1.741-18.014.5-24.092-6.41a20.623,20.623,0,0,0,11.632,9.587c7.045,2.376,14.422-.249,21.053-1.879" transform="translate(-36.412 -209.298)" fill="#fff"/><path d="M43.784,265.96c-5.277-4.255-6.078-10.637-8.427-16.218a39.216,39.216,0,0,0-6.382-9.642c2.79,5.581,1.575,12.764,5.194,18.014a26.047,26.047,0,0,0,4.172,4.531l-.055.083a17.847,17.847,0,0,1-3.73-2.542c-6.327-5.277-15.859-5.94-19.644-14.533,1.022,6.3,6.023,11.88,11.438,15.417,5.139,3.371,11.742,3.012,17.434,4.89" transform="translate(-10.792 -173.764)" fill="#fff"/><path d="M364.162,26.34c2.155,2.846,5.084,4.586,7.625,6.962-1.354-2.846-1.63-6.078-3.343-8.814-2.956-4.7-7.874-6.52-12.433-8.289,3.315,2.929,5.553,6.714,8.15,10.14" transform="translate(-257.651 -11.724)" fill="#fff"/><path d="M390.327,51.917c.5,1.685,1.243,3.288,1.658,5.056l-.111.083a14.656,14.656,0,0,0-3.73-5.47c-3.177-3.012-7.957-4.807-9.532-9.2.083,6.106,5.277,10.748,10.029,14.312A17.269,17.269,0,0,1,393.7,62.72,20.874,20.874,0,0,1,393.587,58c.5-5.332.8-11.3-2.846-15.361a12.361,12.361,0,0,0-6.023-4.034c4.476,3.122,4.227,8.675,5.609,13.317" transform="translate(-274.007 -27.935)" fill="#fff"/><path d="M409.553,86.689l.47,6.134c-.055.055-.055.221-.221.166a18.035,18.035,0,0,1-.387-2.127c-.829-4.946-5.194-8.4-8.869-11.908a7.791,7.791,0,0,1-1.934-2.846,22.941,22.941,0,0,0,2.1,7.239c2.846,5.747,8.316,10.388,9.311,16.936.47-6.272,4.31-10.913,4.31-17.572,0-5.388-2.1-9.808-5.249-13.814-.083-.055-.166-.138-.276-.111,3.454,5.277.276,11.936.746,17.9" transform="translate(-288.481 -49.777)" fill="#fff"/><path d="M420.26,147.284c-.608,2.321-.829,4.807-1.768,6.962-.083.055-.166-.055-.221-.111,2.348-6.576-1.078-12.626-4.421-17.82a15.093,15.093,0,0,1-1.713-4.559c-.359,2.984.276,6.41.829,9.477.718,3.951,2.045,7.653,3.122,11.466a17.892,17.892,0,0,1,.166,7.57l.332-.276c2.487-4.586,7.4-8.178,8.9-13.206,1.188-4.006,2.017-8.648,1.188-13.013a25.039,25.039,0,0,0-1.409-4.973c1.354,7.156-3.371,12.322-5,18.484" transform="translate(-298.194 -93.214)" fill="#fff"/><path d="M211.561,348.877c-5.47-2.266-11.024-5.277-17.24-5.277-9.173,0-17.9,6.216-24.009,12.046a19.593,19.593,0,0,0,2.625,2.376c5.857-6.051,12.764-12.792,19.312-12.792,4.061,0,6.99,3.094,10.388,5.277,4.724,3.012,11.217,4.724,16.8,2.514A18.514,18.514,0,0,0,227.5,347.5c-4.421,3.012-11,3.426-15.942,1.381" transform="translate(-123.257 -248.668)" fill="#fff"/><path d="M465.712,197.4" transform="translate(-337.042 -142.861)" fill="#fff"/><path d="M400.448,212.108a16.428,16.428,0,0,1-2.846,3.757,15.6,15.6,0,0,1,1.216-2.321,17.265,17.265,0,0,0,1.492-8.924c-.387-3.868-1.989-7.46-1.354-11.521-3.315,7.128-2.238,16.08-4.144,23.788-.414,1.713-1.464,3.2-2.1,4.807,3.26-2.487,7.515-4.669,11.079-7.487,3.454-2.708,6.437-5.913,8.012-10.057a23.274,23.274,0,0,0,1.133-9.919c-.58,7.625-8.648,11.659-12.488,17.876" transform="translate(-284.211 -139.749)" fill="#fff"/><path d="M355.74,260.186a17.847,17.847,0,0,1-3.73,2.542l-.055-.083a28.2,28.2,0,0,0,4.172-4.531c3.619-5.249,2.4-12.46,5.194-18.014a39.216,39.216,0,0,0-6.382,9.642c-2.348,5.581-3.15,11.963-8.427,16.218,5.691-1.879,12.295-1.52,17.406-4.863,5.388-3.536,10.388-9.117,11.438-15.417-3.757,8.565-13.262,9.228-19.616,14.505" transform="translate(-250.776 -173.764)" fill="#fff"/><path d="M451.012,260.2" transform="translate(-326.404 -188.31)" fill="#fff"/><path d="M298.216,303.694a9.362,9.362,0,0,1-3.4.442,17.855,17.855,0,0,1,3.371-1.105c6.3-2.376,7.266-9.117,10.72-13.731-4.393,2.929-8.04,6.935-12.157,10.692-2.873,2.625-6.437,3.73-10.14,4.5.884.332,2.045.249,3.012.5,6.659,1.658,14.008,4.255,21.081,1.906a21.024,21.024,0,0,0,11.632-9.587c-6.106,6.88-16.025,4.669-24.12,6.382" transform="translate(-207.425 -209.37)" fill="#fff"/><path d="M113.6,0a45.587,45.587,0,1,0,45.587,45.587A45.632,45.632,0,0,0,113.6,0m0,54.29a8.7,8.7,0,1,1,8.7-8.7,8.7,8.7,0,0,1-8.7,8.7m6.548-16.025a9.787,9.787,0,0,0-5.968-2.487v-7.46a17.141,17.141,0,0,1,11.245,4.669Zm-7.1-2.487a9.787,9.787,0,0,0-5.968,2.487L101.8,32.989a17.141,17.141,0,0,1,11.245-4.669Zm-6.741,3.288a9.787,9.787,0,0,0-2.487,5.968h-7.46a17.141,17.141,0,0,1,4.669-11.245Zm-2.487,7.073a9.787,9.787,0,0,0,2.487,5.968l-5.277,5.277A17.141,17.141,0,0,1,96.359,46.14Zm3.26,6.769a9.787,9.787,0,0,0,5.968,2.487v7.46A17.141,17.141,0,0,1,101.8,58.186Zm7.073,2.459a9.787,9.787,0,0,0,5.968-2.487l5.277,5.277a17.141,17.141,0,0,1-11.245,4.669Zm6.769-3.26a9.787,9.787,0,0,0,2.487-5.968h7.46A17.141,17.141,0,0,1,126.2,57.385Zm2.487-7.073a9.787,9.787,0,0,0-2.487-5.968L126.2,33.79a17.141,17.141,0,0,1,4.669,11.245Zm2.79-12.82a18.314,18.314,0,0,0-12.046-5V18.926a26.6,26.6,0,0,1,17.9,7.432Zm-13.151-5a18.372,18.372,0,0,0-12.046,5l-5.857-5.857a26.6,26.6,0,0,1,17.9-7.432Zm-12.82,5.774a18.314,18.314,0,0,0-5,12.046H86.938a26.6,26.6,0,0,1,7.432-17.9ZM95.254,46.14a18.372,18.372,0,0,0,5,12.046L94.37,64.043a26.6,26.6,0,0,1-7.432-17.9Zm5.774,12.82a18.314,18.314,0,0,0,12.046,5v8.289a26.6,26.6,0,0,1-17.9-7.432Zm13.124,4.973a18.372,18.372,0,0,0,12.046-5l5.857,5.857a26.6,26.6,0,0,1-17.9,7.432Zm12.82-5.774a18.314,18.314,0,0,0,5-12.046h8.289a26.6,26.6,0,0,1-7.432,17.9Zm5-13.124a18.372,18.372,0,0,0-5-12.046l5.857-5.857a26.6,26.6,0,0,1,7.432,17.9Zm.856-19.451a27.683,27.683,0,0,0-18.677-7.736V10.5A34.954,34.954,0,0,1,138,20.39ZM113.047,17.82A27.683,27.683,0,0,0,94.37,25.556L89.2,20.39A34.954,34.954,0,0,1,113.047,10.5ZM93.6,26.358A27.683,27.683,0,0,0,85.86,45.035H78.538A34.954,34.954,0,0,1,88.43,21.191ZM85.86,46.14A27.683,27.683,0,0,0,93.6,64.817L88.43,69.983A34.954,34.954,0,0,1,78.538,46.14ZM94.37,65.59a27.683,27.683,0,0,0,18.677,7.736v7.322A34.954,34.954,0,0,1,89.2,70.757Zm19.782,7.764a27.683,27.683,0,0,0,18.677-7.736L138,70.784a34.954,34.954,0,0,1-23.843,9.891Zm19.478-8.537a27.683,27.683,0,0,0,7.736-18.677h7.322A34.954,34.954,0,0,1,138.8,69.983Zm7.736-19.782a27.683,27.683,0,0,0-7.736-18.677l5.167-5.167a34.954,34.954,0,0,1,9.891,23.843ZM138.8,19.616A36,36,0,0,0,114.152,9.394V1.105a44.316,44.316,0,0,1,30.5,12.654ZM113.047,9.394A36.057,36.057,0,0,0,88.4,19.616l-5.83-5.857a44.316,44.316,0,0,1,30.5-12.654V9.394Zm-25.418,11A36,36,0,0,0,77.406,45.035H69.117a44.316,44.316,0,0,1,12.654-30.5ZM77.433,46.14A36.057,36.057,0,0,0,87.656,70.784l-5.885,5.83A44.172,44.172,0,0,1,69.145,46.14Zm11,25.418a36,36,0,0,0,24.645,10.223v8.289a44.316,44.316,0,0,1-30.5-12.654Zm25.722,10.223A36.057,36.057,0,0,0,138.8,71.558l5.857,5.857a44.316,44.316,0,0,1-30.5,12.654ZM139.57,70.757a36,36,0,0,0,10.223-24.645h8.289a44.316,44.316,0,0,1-12.654,30.5Zm10.223-25.722A36.057,36.057,0,0,0,139.57,20.39l5.857-5.857a44.316,44.316,0,0,1,12.654,30.5Z" transform="translate(-49.221 0)" fill="#fff"/><path d="M241.788,126.8l-.276.028v.332l.276-.028Z" transform="translate(-174.786 -91.767)" fill="#fff"/><rect width="0.359" height="0.276" transform="translate(66.312 34.591)" fill="#fff"/><path d="M237.612,124.176l.332.055.028-.276-.332-.055Z" transform="translate(-171.963 -89.668)" fill="#fff"/><path d="M235.816,123.7l-.3-.028.028-.276.332.028Z" transform="translate(-170.443 -89.306)" fill="#fff"/><rect width="0.359" height="0.276" transform="translate(62.72 34.038)" fill="#fff"/><path d="M224.112,124.476l.332.055.028-.276-.3-.055Z" transform="translate(-162.193 -89.885)" fill="#fff"/><path d="M223.3,125.787l-.387-.11.083-.276.359.111Z" transform="translate(-161.325 -90.754)" fill="#fff"/><rect width="0.282" height="0.282" transform="translate(61.256 35.088) rotate(-11.311)" fill="#fff"/><path d="M90.471,230.27v.608h.276l-.055-.691-.359-.138V229.8h-.221v.47Z" transform="translate(-65.215 -166.309)" fill="#fff"/><path d="M98.412,237.6l.691.332.221.635.332.249.3.691-.166.332-.525-.47-.359-.525-.193-.414Z" transform="translate(-71.222 -171.954)" fill="#fff"/><path d="M137.445,287.98l.249.608-.332.193-.193-.276-.442-.138-.055-.414-.359-.553.553.083Z" transform="translate(-98.651 -207.995)" fill="#fff"/><path d="M122.894,131.042h-.5l-.083-1.022.276-.193V129.3h-1.6l-.055-.525.221-.138-.359-.138-.276.359-.083.414-.47.083v.221h-.332v.608l-1.3,1.078-2.569-.083c-.193.414-.635-.055-.635-.055-.083-.276-.746,0-.746,0,0,.525-.884-.221-.884-.221l-1.6-1.16c-.912-.829-2.293.221-2.348.47.055.663-1.05.138-1.05.138s-.912-.276-1.05.083-.746.276-.746.276l-.083.193-.47.083-.083.276-.553.083,1.381-.055c.359-.055-.138.8-.359.746l-.635.055-.221.221h-.608l-.276.387-.884-.055s-.5.414-.47.553c.055.138-.083.553-.221.553s-.414.414-.332.553-.276.608-.276.608l-.083.47-.276.083v1.271l-.553.387v.553l-.829.884.083.746-.691.746.083.746-.414.138-.083.332-.193.967.47.055c.221-.083.193.608,0,.691s-.691.276-.414.47-.746.138-.746-.138-.553-.525-.691-.414c-.138.083-.359-.414-.359-.414-.5-.525-2.072.055-2.072.055l-.221.746c-.5.083-.829.939-.829.939-.414.138-.746.663-.608.8s-.221.193-.221.193v1.022l-.221.332.055,1.105c.276,0,.221.525.221.525-.47.055-.359.663-.359.663l-.967.332-.193.276-1.188-.055-.332.332-.332-.332H88.358l-.083-.221-.47-.083-.055-.525-.691.055-.138.276-.746.055c.055.47-.746,1.16-.829.967s-.608-.691-.359-.8a7.585,7.585,0,0,1,.829-.193v-.332l-1.713-.055-.193.276-.691.055v.746l-.332.083c-.221.138.055.663.055.663.332.332-.055.829-.055.829-.276.276.221.8.221.8.359.083-.221.359-.221.359a.817.817,0,0,0,.359.608.464.464,0,0,0,.193.691l.055.8.332.193v.525l.193.332h.746l-.055-1.16c-.635-.746.553-.939.608-.663s.553.414.553.414c.083.691.884,1.105,1.105.414s.414-.276.553.055a6.335,6.335,0,0,0,1.022,1.133h.691l.083.663c.774-.055,1.022.055,1.326,1.105a2.037,2.037,0,0,0,1.188,1.354l.635-.055c0-.553.635.083.635.387,0,.276,1.243,1.354,1.243,1.354l1.243.276,1.16.939.884-.083H98c.221-.8,1.326.055,1.437.332.083.276.829.746.912.525s.608-.083.691.608.414.553.414.553l2.625-.055.912-.8,2.348-.055c1.188-.055.47-1.685.221-1.685-.414-.332.138-1.685.138-1.685l-3.343-3.122c-.774,0-.083-1.133-.083-1.133.608-.387-.138-.967-.138-.967a2.182,2.182,0,0,0-.332-1.216,1.657,1.657,0,0,1-.608-1.63v-.746c-.691-.663.276-.746.276-.746a.748.748,0,0,0-.221-.967l-.055-.608-.746-.083-.083-2.183-1.658-2.376c-.332-.083-.083-.663-.083-.663.414-.221-.083-.8-.083-.8l-.055-1.022.967-.083.221-.359h.47l-.055-1.216a.505.505,0,0,1,.774-.276l.635.055.359-.691.083-.553-.5-.055c-.553-.332-.276-1.547-.276-1.547.884-1.3,1.879-.553,1.879-.553l.635-.055c.967.663.083,1.851.083,1.851a2.548,2.548,0,0,0-.083,1.16l.221,1.492-.608.525c-.5.276-.5.939.055,1.077.359.055.221.939-.332.332-.829,0,.47.746.083.553.829.414.635-.359.635-.359l1.105-.884c.414-.332,1.16.691,1.16.829a8.061,8.061,0,0,0,1.823.055,2.2,2.2,0,0,1,.691,1.16c.5-.663,1.575-.055.774.332.746.47.746.884.746.884.608-.193.608.276.608.414a4.523,4.523,0,0,0,.193-.691c-.691-.525.912-.691.47.221l-.276.414.47.359.055,1.078c1.022-.083.746-1.354.746-1.354l.47-.083c0-.414.332-.193.332-.193-.332-1.575.746-1.851.746-1.851.608-.138.635-1.409.635-1.409-.414-.193-.193-.829.276-.276s-.276-1.133-.276-1.133l-.359-.332-.5-.055-.055-.525h-.829l-.138.663-.3.138-.083-.193-.138.525h-.829l-.055-.553.5-.138.193-.276.138-.746h.608l.774-.221c.055-.8.47-.608.47-.608l.276.221.414.332.055.276-.276.138-.055.387.138.525h.359a.771.771,0,0,1,1.381-.276l.276-.663c-.635-.332,0-.829.166-.608.193.221.608-.608.608-.608s.332.414,0-.138a.561.561,0,0,1,.221-.829c-.083-.553.608-.47.608-.47l.055-.746-.635-.055c-.138.663-.691.083-.414-.055a2.578,2.578,0,0,0,.553-.414v-.47l.276-.083.055-.47h.691l.608-.276.138-.221.635-.055.912-.829-.083-.359c-.553,0,0-.414,0-.414Z" transform="translate(-59.925 -92.997)" fill="#fff"/><path d="M157.394,170.883l-.829-.083.055.332h.221a4.7,4.7,0,0,1,.055,2.238s-.553.055-.635-.221-.332.608-.138.746.829,0,.884.525.414-.332.414-.332Z" transform="translate(-112.937 -123.61)" fill="#fff"/><path d="M157.912,184.293V185.4l.718.995.276-.663.111-.414-.332-.138.055-.691.276-.055.028-.332-.691.47Z" transform="translate(-114.283 -133.236)" fill="#fff"/><path d="M161.271,194.87v-.47l-.332.055-.028.359Z" transform="translate(-116.454 -140.69)" fill="#fff"/><path d="M159.7,203.332V203l-.387.055v.332Z" transform="translate(-115.296 -146.914)" fill="#fff"/><path d="M162.205,197.987a.193.193,0,1,0-.193-.193.189.189,0,0,0,.193.193" transform="translate(-117.25 -143.006)" fill="#fff"/><path d="M163.305,201.1a.193.193,0,1,1-.193.193.193.193,0,0,1,.193-.193" transform="translate(-118.046 -145.539)" fill="#fff"/><path d="M163.405,181.8a.193.193,0,1,1-.193.193.193.193,0,0,1,.193-.193" transform="translate(-118.119 -131.571)" fill="#fff"/><path d="M209.758,158.008h.276l.055.3-.193.166-.083.249-.359.083-.829.8-.055.359-.221.332-.276.691-.967.055-.193.829.138.718.829.332.083-.47.276-.138.055-.47.193-.332.276-.332.083-.359.47-.276.553-.111.221-.276.083-.553.055-.414.193-.3.553-.221v-.884H210.7l-.055-.332-.5-.055-.111.249h-.221Z" transform="translate(-149.745 -113.913)" fill="#fff"/><path d="M214.373,164.9v-.663l-.083-.608-.691-.332-.5.47-.083.663v.414l-.47.083-.083,1.271-.359.138.055.47-.5.138-.5.138-.083.608-.359.221-.193.553-.221,1.354s.414.8.635.414a.93.93,0,0,1,.608-.414l.138-.332,1.243.055a.354.354,0,0,1,.691-.083c0,.221.47.055.47.055l.332-.525h.5l.055-.553.221-.138v-.829a.854.854,0,0,0,.635-.939l.193-.221-.083-.332c-.359-.138-.193-.47.055-.387.221.083-.332-.414-.332-.414-.276.221-.5-.276-.5-.276Z" transform="translate(-152.206 -118.183)" fill="#fff"/><path d="M223.587,188.632c-.055.553-.746.746-.746.746l-.5-.138-.276-.221-.055-.663.414-.055.083.276Z" transform="translate(-160.673 -136.275)" fill="#fff"/><path d="M235.409,175.371c.111.414.083-.663.276-.608s.055-.663.055-.663l-.829.608c.387.055.442.47.5.663" transform="translate(-170.009 -125.999)" fill="#fff"/><path d="M244.426,169.454c.193.414.138,1.022.829,1.492.221.166-.138.47-.359.332a7.6,7.6,0,0,1-.884-1.16v-.608c.138-.359.332-.221.414-.055" transform="translate(-176.595 -122.513)" fill="#fff"/><path d="M245.512,220.621l.138.138.138.249.3-.525-.249-.083Z" transform="translate(-177.68 -159.507)" fill="#fff"/><line y2="0.58" transform="translate(66.671 60.368)" fill="#fff"/><path d="M264.978,214.87l.359-.249-.138-.221-.387.221Z" transform="translate(-191.648 -155.164)" fill="#fff"/><path d="M313.468,242.183l.414.193.055.8c.553.553,2.348.083,2.348-.055s-.083-1.713-.083-1.713l-.221-.221-.055-1.16c.193-.608-.884-1.492-.967-1.3s-.691.055-.691.221c0,.193-.359,1.105-.193,1.437.193.332-.138.332-.193.663-.055.276-.525.829-.414,1.133" transform="translate(-226.849 -172.752)" fill="#fff"/><path d="M308.087,244.179c-.083.359-.414.553-.608.414s.221.221.332.414a.262.262,0,0,0,.47,0c.083-.193.055-.608.138-.8.083-.166-.276-.221-.332-.028" transform="translate(-222.49 -176.627)" fill="#fff"/><rect width="0.332" height="0.884" transform="translate(83.469 59.015)" fill="#fff"/><path d="M319.253,179.92c-.193-.276.912-.746,1.105-.193s0,.47-.193.414c-.166-.055-.635.138-.912-.221" transform="translate(-231.031 -129.885)" fill="#fff"/><path d="M322.767,158.5l-.055.276.5.083.055-.276Z" transform="translate(-233.551 -114.709)" fill="#fff"/><path d="M316.186,160.314l.028.083.276-.111-.111-.221-.055-.166-.138.083-.332.193-.3-.193-.138.249.359.221.083.055.055-.055Z" transform="translate(-228.268 -115.722)" fill="#fff"/><path d="M315.972,118.3h-.691s.221.083-.414-.525a.626.626,0,0,0-1.05.138l-.746.083v.746l-.359.138.055.47.5-.055s0,.553.138.332,1.3.055,1.188.608c-.028.221,1.16.829,1.022,1.575a.548.548,0,0,1,.47.691l.774.083.221-.47.221.055v-.276l-.5-.138-.083-1.492-.332-.221.083-.387-.359-.138.193-.608Z" transform="translate(-226.314 -85.063)" fill="#fff"/><path d="M327.224,137.355l-.359-.055-.829.138-.47.884a1.423,1.423,0,0,1,.414.47c.193.332.276,2.238-.276,2.569s.055.138.055.138l-.083,1.022c.138.47.359.221.5,0s.276-.276.47-.525a2.161,2.161,0,0,0,.5-.967c.055-.332.276-.829.138-.967s.138-.8.138-.8a.881.881,0,0,0,0-.746.939.939,0,0,1,.193-.967Z" transform="translate(-235.549 -99.366)" fill="#fff"/><path d="M333.812,143.459l.028-.359.276.028-.028.387Z" transform="translate(-241.584 -103.563)" fill="#fff"/><path d="M333.061,148.014l-.249-.138.138-.276.249.138Z" transform="translate(-240.861 -106.82)" fill="#fff"/><path d="M328.837,123.492l-.193-.414a1.819,1.819,0,0,1,.083-.553c.083-.193-.193-.359-.332-.414s-.083-.414-.138-.608-.359-.332-.359-.332-.083-.691-.083-.829-.414-.332-.276-.47.221-.332.359-.414-.138-.746.083-.608.221.387.332.553c.083.193-.055.829.193.967.221.138-.055.608.332.608.359,0,.138.884.138.884s-.083.663.138.691c.221.055.083,1.16.083,1.16Z" transform="translate(-237.024 -86)" fill="#fff"/><path d="M321.512,108.328c.138.193.414.332.414.525s-.083.332.193.359c.276.055.47-.055.553.193a2,2,0,0,1,.055.8c-.055.193.055.47.276.47s.276.055.276.193.276-.525.276-.525a2.26,2.26,0,0,1-.414-.608s-.221-.663-.221-.746-.332-.193-.47-.221c-.138-.055-.359-.47-.359-.47Z" transform="translate(-232.683 -78.378)" fill="#fff"/><path d="M319.493,102.347a1.116,1.116,0,0,0-.47-.414,1.416,1.416,0,0,0-.5-.193.3.3,0,0,1-.276-.414c.083-.221-.138-.332-.138-.525s.138-.193.359-.055.193.193.359.414c.193.221.276.47.47.414s.332.414.5.276c.193-.138.138.332.138.332Z" transform="translate(-230.222 -72.84)" fill="#fff"/><path d="M300.093,115.623c.249.249-1.381.193-1.381,0s.138-.829.553-.691.47-.829.47-.829-.359.055-.055-.138c.331-.193,0-.47-.138-.608a2.136,2.136,0,0,1-.276-.387h.635c.276-.193.359-1.078.359-1.078a.707.707,0,0,0,.829-.193,1.808,1.808,0,0,0,.276.525c.193.221-.47.332-.221.47.221.138.332.553.221.691-.083.138-.608.055-.608-.138s-.193.221,0,.47c.193.221-.221.553-.332.553-.083,0-.691.083-.193.387a1.588,1.588,0,0,0,1.05.138s.414-.055.553.193c.138.221-.055.276-.276.276s-1.326-.083-1.326-.083-.276.3-.138.442" transform="translate(-216.182 -80.839)" fill="#fff"/><path d="M292.63,127.281c.221-.055.774-.083.884.055.083.138-.332.332-.332.332l-.553.083c-.166-.221-.221-.414,0-.47" transform="translate(-211.675 -92.083)" fill="#fff"/><path d="M314.512,111.129c.359-.193,1.16-.193,1.105-.47s.47-.359.47-.359l.138.553.414.276.055.525s.138-.083-.359.055-.193.359-.193.359l-1.105.055-.138-.47Z" transform="translate(-227.617 -79.826)" fill="#fff"/><path d="M306.42,100.12c.276,0-.083,1.078.635.967.746-.083.055.332.608.359.553.055.414-.414.608-.746s.083-.525-.221-.608c-.332-.083-.332-.083-.414-.47a.705.705,0,0,0-.47-.47l-.138-.553-.608.359-.608.8c0,.663.332.359.608.359" transform="translate(-221.32 -71.358)" fill="#fff"/><path d="M312.412,117.676l.138-.276.249.111-.138.3Z" transform="translate(-226.097 -84.964)" fill="#fff"/><rect width="0.276" height="0.332" transform="translate(85.845 32.27)" fill="#fff"/><path d="M310.788,94.3l.055.414-.276.028-.055-.414Z" transform="translate(-224.722 -68.246)" fill="#fff"/><rect width="0.276" height="0.221" transform="translate(85.293 30.391)" fill="#fff"/><path d="M305.94,109.2l-.028-.276.47-.028.028.276Z" transform="translate(-221.393 -78.812)" fill="#fff"/><path d="M291.661,125.142l-.249-.111.138-.332.249.111Z" transform="translate(-210.899 -90.247)" fill="#fff"/><path d="M287.04,122.332l-.028-.276.47-.055.028.276Z" transform="translate(-207.715 -88.293)" fill="#fff"/><path d="M255.634,122.9l-1.022.028.028.276.995-.028Z" transform="translate(-184.266 -88.944)" fill="#fff"/><path d="M251.923,123.07l-.111-.414.276-.055.083.414Z" transform="translate(-182.24 -88.727)" fill="#fff"/><path d="M251.295,124.6l-.083-.276.138-.028.083.249Z" transform="translate(-181.806 -89.958)" fill="#fff"/><path d="M259.667,122.192l-.055.332.5.055s.221.193.221.332.332.276.5.276c.193,0,.691-.387.691-.387s.221-.663.055-.608c-.193.055-.553.332-.608.055s-.608-.138-.608-.138Z" transform="translate(-187.885 -88.347)" fill="#fff"/><path d="M268.082,118.767c0,.138-.083.332.193.387s.774-.193.829.083.055.47.414.608a2.332,2.332,0,0,0,.884.193c.276,0,.884-.083.884-.083a2.811,2.811,0,0,1,.774.221c.5.525.829.663.967.414.138-.221-.055-.746-.083-.939-.055-.193-.691-1.078-.912-.884s-.276,0-.691.138-1.3.055-1.326-.138c-.055-.193-.691-.276-.691-.47s-.47-.414-.414-.138-.332.414-.414.332c-.138-.111-.414.276-.414.276" transform="translate(-194.006 -85.42)" fill="#fff"/><path d="M290.594,77.477l.332-1.022c-.47-.083-.359-.608-.359-.608-.055-.414-.691-.884-.912-.746s-.138-.967-.138-.967.414-.276.608-.138-1.575-2.321-1.934-2.1-1.188-.221-1.16-.663c.055-.414-1.658-1.823-1.658-1.823s-.553-.359-.635-.083-.276.47,0,.608.221-.221.553.083c.332.332.912.746.691,1.022a1.358,1.358,0,0,1-.5.387l.332.387h.5l.083.8s.553.276.691.608.138.525,0,.691c-.138.193-.414.525-.359.829a.691.691,0,0,0,.414.47l.359.055.276.138v.608c.359-.083.967.414.912.746s.083.138.553.47.332.387.635.608c.3.193.58.055.718-.359" transform="translate(-205.964 -50.097)" fill="#fff"/><path d="M278.186,73.784c-.055-.193-.138-.829.138-.8a1.033,1.033,0,0,1,.414.138c.332.138.359-.221.359-.221h.5l.635.525-.083.414-.47.055c-.221-.359-.691-.221-.608.083.083.332-.221.939-.414.967-.193.055-.774.055-.746-.221.083-.276.276-.939.276-.939" transform="translate(-201.126 -52.759)" fill="#fff"/><path d="M269,63.623v-.359s-.055-.359-.276-.359-.635-.276-.553-.47-.774-.387-.774-.387-.774-.746-.5-.663.138-.332.138-.332a4.069,4.069,0,0,1-.691.055c-.138-.055-.083-.47-.083-.47s-.553-.138-.553,0,.193.138.276.414.055.746.47.829.5.193.553.387.553.221.553.221l.359.193Z" transform="translate(-192.299 -43.841)" fill="#fff"/><path d="M258.309,53.17l-.138-.387-.359-.083v.414Z" transform="translate(-186.582 -38.14)" fill="#fff"/><path d="M258.807,46.111c-.47-.359.635.276.635.276a.607.607,0,0,1,.608.414c0,.138.5.083.5.083l.055-.332-.359-.47-.332-.221s-.5-.055-.5-.193c0-.111-.414.58-.608.442" transform="translate(-187.218 -33.042)" fill="#fff"/><path d="M288.225,46.491c-.138.414-.193.967-.414.967s-.138.608-.138.608a4.515,4.515,0,0,1,.774.055c.193.055.193.525.193.525.691-.055.967.884.884,1.133-.083.221.276.221.276.221a4.421,4.421,0,0,1-.083.939c-.083.193.608.332.774.608a1.578,1.578,0,0,1-.221,1.271c-.138.055.359.193.332.414-.055.221.138,0,.193.387.055.359.138,1.16.138,1.16l.635.055c.083-.608,1.271-.635,1.464-.553a2.8,2.8,0,0,1,1.381,1.768c0,.276-.5.332-.5.332L294,57.736c.774.221,1.437,1.354,1.326,1.547-.083.193.553.138.553.138.083-.829.884-.553.912-.276.055.276.193.884.193.884l.221.414.332.332.5-.055.138.276.608.083a5.965,5.965,0,0,1,.553.691c.055.138.746.083.912.138.193.055.47.193.5.414a2.639,2.639,0,0,0,.332.608s.553.138.608.332a4.757,4.757,0,0,0,.276.608l.47.387.055.414.5.055.138.553.829-.055.47-.332a2.21,2.21,0,0,0,1.05-.939c.055-.193.138-.884.608-.746s.138-1.022.138-1.022-.635-.47-.608-.691c.055-.221-.635-.691-.608-.884.055-.193-.608-.553-.553-.746s-.332-.691-.332-.691l-.691-.663-.083-.414-.553-.055-1.105-1.354.055-.387-.332-.055v-.525l-.332-.193-.5-.055-1.022-1.105-.083-.525h-.5l.083-.967a1.693,1.693,0,0,0,.138-1.216s-.635.332-.967.193.138-.47.138-.47v-.359l-.276-.276s-.774.083-.829-.055-.193-.746-.193-.746l-.055-.8L296.679,49l-.055-.276-.5.055v-.553l-.276-.083-.276-.138-.055-.553L294.5,47.4l-.332-.47-.359-.553-1.16-.083-.276-.276-.47-.083-.332-.138-.138.221-.884.055-.055.276c-.387.193-2.21,0-2.266.138" transform="translate(-208.181 -33.146)" fill="#fff"/><path d="M307.2,42.546c-.083-.359.912-.691,1.16-.414a1.872,1.872,0,0,1,.967,1.713c.028.5-.829-.525-.829-.525l-.691-.221a.676.676,0,0,1-.608-.553" transform="translate(-222.321 -30.417)" fill="#fff"/><path d="M257.761,44.553l-.249-.111.193-.442.249.138Z" transform="translate(-186.365 -31.843)" fill="#fff"/><path d="M239.608,23.683,239,23.075V22.55l-.193-.193-.193-.663-.608-.193-.608.221-.635.414-.691.083-.359.414,1.464.138.276.47,1.05.083.691.691c.635.276.774,0,.414-.332" transform="translate(-170.588 -15.56)" fill="#fff"/><path d="M248.579,19.056c-.111-.414-.691.525-.083.691a2.123,2.123,0,0,0,1.188,0l.138-.276,2.293.055a1.267,1.267,0,0,0,.276-.47s.553-.193.774-.083c.221.083.055-.663-.193-.553a2.328,2.328,0,0,1-.691.055h-.829c-.055-.332-.774-.193-.829,0-.028.166-.3.221-.3.221l-1.05.083c-.111.276-.635.47-.691.276" transform="translate(-179.643 -13.226)" fill="#fff"/><path d="M231.98,44.8c.718.221.967.055,1.022-.138s.083-.221.359-.276-.055-.608-.332-.553a.5.5,0,0,1-.608-.332c-.055-.221-.5-.829-.553-.359s-.332.47-.276.8c.083.3.221.8.387.856" transform="translate(-167.602 -31.099)" fill="#fff"/><path d="M213.91,51.124c-.028-.166.912-.193,1.05-.055s.055.387.47.387.221.276.193.414c-.055.138-.5.083-.553-.055s-.746-.193-.746-.193-.359-.276-.414-.5" transform="translate(-154.81 -36.895)" fill="#fff"/><path d="M267.916,15.88l.111.111.083-.083.47-.387-.193-.221-.359.3-.221-.249-.193.221Z" transform="translate(-193.675 -11.073)" fill="#fff"/><path d="M260.154,11.908l.055-.055.525-.332-.166-.221-.414.276-.3-.193-.138.249.359.221Z" transform="translate(-187.957 -8.178)" fill="#fff"/><path d="M254.3,47.1l.3.47.221-.166-.3-.5-.055-.055h-.055l-.47-.055-.028.276Z" transform="translate(-183.76 -33.87)" fill="#fff"/><path d="M200.909,94l.055.525h.691c.276,0-.221-.332-.221-.332s-.553.055-.525-.193" transform="translate(-145.4 -68.029)" fill="#fff"/><path d="M204.112,93.521l.166-.221.276.221-.166.221Z" transform="translate(-147.719 -67.523)" fill="#fff"/><rect width="0.274" height="0.391" transform="translate(48.022 17.268) rotate(-44.999)" fill="#fff"/><path d="M220.205,279.3l.193.193.221-.221.138-.138-.166-.111-.47-.221-.111.249.276.138Z" transform="translate(-159.226 -201.771)" fill="#fff"/><path d="M207.25,267.17l.332.221.166-.221-.193-.138.138-.111-.166-.221-.276.249-.138.111Z" transform="translate(-149.89 -193.015)" fill="#fff"/><path d="M331.754,234.632a.481.481,0,0,0-.359-.332l-.083.276c.028,0,.055.028.083.055l.055.249c-.028.028-.055.055-.055.083l.193.193a.728.728,0,0,0,.166-.525" transform="translate(-239.775 -169.566)" fill="#fff"/><path d="M333.254,231.142l-.442-.028.028-.414.442.055Z" transform="translate(-240.861 -166.961)" fill="#fff"/><path d="M372.471,218.79c.193-.111.442-.359.414.166s-.249.359-.414.525-.276-.525,0-.691" transform="translate(-269.441 -158.228)" fill="#fff"/><path d="M380.544,211.059V211a.72.72,0,0,0-.083-.3l-.249.138c.028.055.028.138.055.193a.314.314,0,0,0,.083.221.227.227,0,0,0,.193.028l-.055-.276c0,.028.028.028.055.055" transform="translate(-275.165 -152.487)" fill="#fff"/><path d="M379.212,212.583c.083.276.166.553.166.58l.249-.111a3.638,3.638,0,0,1-.166-.553Z" transform="translate(-274.441 -153.789)" fill="#fff"/><path d="M374.771,216.728l-.276-.028c-.028.221.028.5.249.525l.055-.276a1.046,1.046,0,0,1-.028-.221" transform="translate(-271.022 -156.829)" fill="#fff"/><path d="M368.968,196.127c-.028-.083-.055-.166-.138-.193a.967.967,0,0,0-.718.166l.166.221a.747.747,0,0,1,.442-.138v-.028Z" transform="translate(-266.408 -141.782)" fill="#fff"/><path d="M239.424,130.556a1.441,1.441,0,0,1-.608.276l-.138.525-.221.193a.976.976,0,0,1,0,.47c-.055.332-.47.525-.47.525l-.193.221a9.269,9.269,0,0,1-1.243,0,.363.363,0,0,1,.138-.691c.276.055-.055-.8-.055-.8l.359-.055s.055-.829.193-.829-.055-.276-.221-.414c-.193-.138-.414-.608-.608-.553a4.9,4.9,0,0,1-.912,0l-.138.276-.5.083s.055.359-.055.47c-.276.332-1.326,1.022-.884-.138l.138-.276v-.414l-.829-.055s-.414-.138-.414-.332a2.017,2.017,0,0,0-.055-.414l-.967-1.078-1.16-.138-.083-.221-.691-.083c-.829-.414-1.575-.055-1.437.663.138.691.359.967-.083.967a.521.521,0,0,1-.553-.359s-.359-.138-.359.055-.138.553,0,.746-.193.47-.332.332-.5-.553-.414-.691-.635-1.022.083-1.16c.746-.138-.055-.553.221-.663l.359-.193h.359l.221-.193-.608-.083-.359-.055-.691-.055a1.968,1.968,0,0,0-.829,1.022c-.359.691-1.243-.276-.912-.663s-1.022-.055-1.243.138-.912.083-.912.083c-.138.414-.774-.055-.608-.332a.914.914,0,0,0,.193-.47l-.221-.055-.276.525c-.635,0-.829.359-.691.608.138.221-.193-.055-.276.276s.055.332.332.47-.138.138.055.359.746,0,.414.332a1.194,1.194,0,0,1-.967.193c-.055.414-.912.332-1.022.193-.083-.138-.774-.967-.774-.967l-.884-.055c-.083-.663.414-.332.608-.829a6.871,6.871,0,0,0,.276-1.354s-.746-.055-.774.193c-.055.221-.5.387-.5.387s-.359.138-.221.332-.276.276-.276.276.083.3-.055.414c-.359.387-1.3.055-1.437-.083l-.553-.221-.553-.359-.635.276-.193.193H212.6l-.055.553,1.243.138.083,1.16-.5-.166h-.332l-.138-.276-.276-.055v1.022l.276.221.221.221.47.055.083.553,1.16.055.138.221.691.055,1.326,1.354-.083.414-.221.138c.083.332-.608.138-.608.138v.276l.332.055.332.193.47-.8c.5-.332.746.138.774.414.055.276-.221.221-.221.221v.663l.276.083a.544.544,0,0,1-.193.884l-.138.47c-.138.414-.635.332-.635.332l-.193.276-.553.138,1.078.138c.111-.387.387-.47.525-.276a1.073,1.073,0,0,1,.138.525l.276.055-.055.525.276.083v1.492l.332.359c.553-.221.553.138.276.332s-.083,1.022-.083,1.022l-.221.221v.387l-.276.193v.525a1.266,1.266,0,0,0-1.16,0c-.414-.276-1.3-.193-1.3.055.276.359-.332.47-.332.47l-.332.359c.221.47-.221.525-.221.525v.884l-.553.525.055,1.216c0,.332.691.359.829.193.138-.193.691.387.691.387h.414l.083-.829-.276-.138v-1.354l.47-.525c.553-.193.359,1.216.359,1.354.055.525.276.47.5.359.47-.193.083.525-.276.47s-.138.47-.138.47l.221.083-.414.332-.359.414-.47-.138-.553-.055-.193-.332-.332-.055-.055.663-.221.276-.553.553c.746,0-.083.525-.276.525.414.138-.055.553-1.105.221v.332l-.359.055.332.359.359.055-.138.8c0,.608-1.52.193-1.658.055l-.055.829-.276.055.055.553-.055.8.5-.083v.332l1.243.055,1.8-1.906,1.05-.221c.083-.47.553.083.553.083.47-.055.553.276.553.276l.608.083c.5.138.193.193.221.387.055.276.276.193.276.193l.083-.608.276.055-.276-.332-.5-.221-.553-.221c-.359-.525.083-.414.47-.359h.608a5.339,5.339,0,0,1,.691,1.16c0,.221.332.276.332.276l.414-.055.138.332h.414l.138.276h.829l.055-.414-.774-.138-.055-.47-.553-.138c-.193-.8.138-1.022.359-.663l.276.055-.083-.691.332-.083-.083-.967-.276-.083v-.332l1.16.055a1.644,1.644,0,0,1,.055-.884h.332l.055.221,1.409.138.995-1.133c-.055-.083.111-.138,0-.249-.138-.138-.332,0-.553-.138s0-.939-.055-1.105c-.055-.193.774-.47.635-.055a.7.7,0,0,0,0,.608c.608-.553,1.105.055,1.05.193s.332.276.553.138.5.414.414.691-.912.221-.967-.055-.193-.193-.276-.055a.686.686,0,0,1-.746.083c-.055-.028-.055-.055-.083-.083l-.995,1.133h.055c.553.332.276.746.083.829a1.55,1.55,0,0,1-.5.083l-.083.193-1.188.083-.083.47a.654.654,0,0,0-.691.884.778.778,0,0,1,0,.608l.5.221.635-.193c.083-.47.5-.553.884-.829.359-.276.967.525.774.884a1.306,1.306,0,0,0-.193.525l.055.414-.47.193-.359.193-.055.221h-1.243l-.221.221-.608.055-.193.276-.414.055s-.691.332-.414.691c.276.387-1.16.332-1.464-.193-.083.47-.608.055-.608.055l-.5-.138-.055-.691c-.083-.47-.967-.47-.912-.138s-1.658.138-1.658.138l-.553.276-.5.3-.055.221-.829.083-.359.193-.138-.276h-.359l-.359.525c-.967.055-1.879.608-1.8.829s-.359.47-.359.47l-.414.138-.276.414-.553.193-.083.967-.276.193v.414l-.332.083v.221l-.47.055.276.691.359.193c.635.083.359.884.359.884l.359.055.193.525.359.746c.138.553.553.414.746.387.193-.055.359.553.359.553l1.823.055s-.083.193.221.276a9.768,9.768,0,0,0,2.514.055c-.083-.414,1.16-.525,1.658-.138a1.483,1.483,0,0,0,1.188.138l.691.829.47,1.022.774.221.553.138.193.8.414.055.138.525c.5.359-.138,1.16-.138,1.16v1.022l.359.193-.055.387.608.608.691.055,1.741,1.851,1.381.414.221.746.359-.055.276-.221,1.105-.055.553-.525.608-.083,5.111-4.338-.47-.276v-1.022c.829-.608.884-1.685.083-1.768-.58-.083-.332-.691.221-.8l.332-.138v-.414l1.05-.967v-.746l-2.293-1.906c-1.022-.359,0-2.6.691-2.569.691.055-.055-3.454-.055-3.454l-.359-.193.083-1.133h-.5l-.829,1.078-.221.746c-.083.967-2.929.8-3.067.663a8.146,8.146,0,0,0-1.105-.553s-.746-.608-.884-.414-.774-.221-.774-.083-.608-.332-.608-.332l-.912-.332.691-.138-.138-.553,1.188.608c.138.193.746.138.746.138l.193.221a.726.726,0,0,1,.608.221c.221.276,1.437.055,1.437.055l.332.276.5.193,1.437.055.055-.884.276-.276-.055-.553.332-.276v-.47l.276-.083.055-1.022.221-.055v-2.238l-.691-.663c-.055.221-.774.221-.774.221s-.193.332-.332.332.193.414.083.691c-.083.276-.47.276-.47.276l-.691.193-.193.221H227.9l-.083-.608.829-.221.47-.221.221-.47c.055-.47.608-.414.608-.414s1.05-.884,1.105-1.3.414-1.575,1.05-1.575h1.188c.47-.193.332-.8.332-.8l.608-.083.083.332s.829.083.912-.055.276-.47.5-.332.967-.332.967-.332c.055-.332,1.188-.193,1.188-.193l.138-.414s-.774-1.077-.912-1.077-.884-.663-.967-.414c-.746-.193-.691-1.216-.691-1.216l-.276-.663c0-.387-.691-1.16-.829-1.078a.651.651,0,0,1,0-1.16c.193-.055.635-.691.635-.691l.221-.663.774-.221.083-.608-.414-.055s.47-.829.691-.829a13.635,13.635,0,0,0,1.879-.083,2.508,2.508,0,0,0,.414-.967c0-.138.359-.193.5-.221a1.7,1.7,0,0,0,.553-.608c.249-.47-.055-1.63-.249-1.437" transform="translate(-149.6 -91.102)" fill="#fff"/><path d="M229.709,199.868c.055-.055.138.221.276.166.138-.028.193.249.055.249s-.138.166-.138.249a.5.5,0,0,1-.111.359c-.111.111-.193.028-.332-.028a.578.578,0,0,0-.387-.083c-.166,0-.028.276-.028.276s-.718-.028-.58-.138.276-.138.166-.221,0-.138,0-.276.332-.083.249-.166c-.111-.111,0-.5.166-.276l.111-.249c-.111-.111-.028-.138-.249-.221-.193-.083-.028-.5-.028-.5l.028-.276c.055-.359.746-.387.8-.083a2.706,2.706,0,0,1,0,.525l.193.083s-.028.221-.193.221,0,.111-.111.221Z" transform="translate(-165.331 -143.617)" fill="#fff"/><path d="M224.812,202.59c.111-.221.332-1.105.608-.829s.442,0,.442,0a.416.416,0,0,1,.055.414c-.055.276-.138.553-.3.608-.166.028-.3.138-.525.166-.166.028-.276-.359-.276-.359" transform="translate(-162.7 -145.979)" fill="#fff"/></g><rect width="322" height="322" transform="translate(-385.589 49.677)" fill="none"/></g></svg>