<svg xmlns="http://www.w3.org/2000/svg" xmlns:xlink="http://www.w3.org/1999/xlink" width="322" height="322" viewBox="0 0 322 322"><defs><clipPath id="a"><rect width="227.817" height="32.744" fill="none"/></clipPath></defs><g transform="translate(-129.81 144.628)"><g transform="translate(176.81 0.372)" clip-path="url(#a)"><path d="M200.4,4.247c0-2.24.7-3.012,1.853-3.012s2.085.463,3.166,3.012l6.564,14.9v9.422c0,2.24-.927,2.857-3.475,3.166v.618h12.124V31.74c-2.626-.309-3.475-1-3.475-3.166V19.152l6.333-14.364c1.236-2.78,2.471-3.4,4.325-3.707V.463h-8.881v.618c3.012.309,4.093,1.158,3.243,3.166l-5.56,12.742L210.9,3.939c-.772-1.776-.309-2.317,3.012-2.78V.541H194.841v.618c3.012.463,3.939,1,3.939,3.166V21.778L184.8.541h-6.873v.618c2.24.309,2.935,1,2.935,3.166V28.651c0,2.24-.618,3.012-1.39,3.012-.7,0-1.081-.309-2.085-3.012L167.04.386h-.618L156.46,27.415c-1.081,3.012-2.78,4.016-4.479,4.4v.618h9.113v-.618c-3.166-.309-4.17-1.545-3.475-3.552l2.24-6.178h9.422l2.162,5.792c.927,2.626.386,3.4-2.317,3.861v.618h17.3V31.74c-3.012-.463-3.939-1-3.939-3.166V6.8L199.4,32.435h1ZM78.462,16.372c0-9.885,4.711-15.059,10.194-15.059,3.243,0,5.329.7,6.564,2.008a11.6,11.6,0,0,1,2.394,4.325h.618V1a46.034,46.034,0,0,0-8.881-1C81.087,0,72.515,5.329,72.515,16.372S81.087,32.744,88.81,32.744a31.945,31.945,0,0,0,9.267-1.39L99,25.1l-.541-.154a16.541,16.541,0,0,1-2.471,3.475,10.535,10.535,0,0,1-7.414,3.089c-5.251-.077-10.117-5.1-10.117-15.136m68.5.927a16.372,16.372,0,0,1-2.548-.232V1.622h2.548c4.247,0,6.1,2.24,6.1,7.8,0,5.637-1.931,7.877-6.1,7.877M47.726.463V8.109h.618c.927-4.865,2.857-6.41,6.1-6.41h1.545V28.574c0,2.24-.927,2.857-3.475,3.166v.618H64.638V31.74c-2.626-.309-3.475-1-3.475-3.166V1.622h1.545c3.243,0,5.174,1.545,6.1,6.41h.618V.386h-21.7Zm-9.653,32.28c5.251,0,10.812-3.012,10.812-9.19a9.482,9.482,0,0,0-5.329-8.495l-6.024-3.321c-3.166-1.776-4.093-3.4-4.093-5.715,0-2.626,1.931-4.711,5.56-4.711a5.737,5.737,0,0,1,4.17,1.467,12.337,12.337,0,0,1,2.7,5.251h.541V1a24.9,24.9,0,0,0-7.028-1C34.211,0,30.35,3.243,30.35,8.727a9.88,9.88,0,0,0,5.1,8.495l5.56,3.089c3.166,1.776,4.17,3.475,4.17,6.024,0,3.012-3.089,5.174-6.487,5.174a7.456,7.456,0,0,1-5.406-2.085,10.693,10.693,0,0,1-2.394-3.861h3.63v-.618c-1-.232-1.622-.386-2.471-2.394l-7.1-16.912h-.618l-6.95,16.526c-.927,2.24-1.545,2.626-2.626,2.78v.618h6.178v-.618c-2.24-.232-2.857-1.313-2.317-2.7l1.081-2.626h6.255l1.39,3.243c.618,1.467-.309,1.853-2.548,2.008v.618h4.942v6.1a32.943,32.943,0,0,0,8.34,1.158m78.462-.309,9.19-25.562.7,21.778c.077,2.162-.772,2.78-3.4,3.089v.618h25.33V31.74c-3.012-.463-3.939-1-3.939-3.166V18.3a19.206,19.206,0,0,0,2.78.232c6.1,0,11.352-2.24,11.352-9.035S153.294.463,147.193.463H136.3v.618c2.24.309,2.935,1,2.935,3.166V28.574c0,2.24-.927,3.166-3.475,3.166h-.077c-2.7,0-3.861-1-3.939-3.089l-.927-24.326c-.077-2.24.7-2.935,3.089-3.243V.463h-7.491L118.233,23.4,110.047.463h-8.032v.618c2.394.309,3.166,1.081,3.089,3.243l-.849,23.322A3.921,3.921,0,0,1,100.7,31.74v.618H109.2V31.74a3.6,3.6,0,0,1-3.321-4.093l.7-21.237,9.344,25.948ZM91.9,25.716c4.093,0,9.344-3.63,9.344-9.344,0-5.638-5.174-9.344-9.344-9.344-4.093,0-9.344,3.63-9.344,9.344,0,5.637,5.174,9.344,9.344,9.344m0-17.376c2.626,0,4.4,2.162,4.4,8.032,0,5.946-1.853,8.032-4.4,8.032-2.626,0-4.4-2.162-4.4-8.032,0-5.946,1.776-8.032,4.4-8.032m76.994,12.433h-8.572l4.247-11.738ZM25.562,18.38H20.31l2.626-6.41ZM15.522,20h.618V10.426h-.618c-1,3.4-2.008,4.17-3.861,4.17H8.109V1.622h5.637c3.243,0,5.174,1.545,6.1,6.41h.618V.386H0V1c2.24.309,2.935,1,2.935,3.166V28.5c0,2.24-.7,2.857-2.935,3.166v.618H12.047v-.618c-3.012-.463-3.939-1-3.939-3.166V15.754h3.552c1.776.077,2.857.849,3.861,4.247" transform="translate(0 0)" fill="#fff"/></g><rect width="322" height="322" transform="translate(129.81 -144.628)" fill="none"/></g></svg>