<svg xmlns="http://www.w3.org/2000/svg" xmlns:xlink="http://www.w3.org/1999/xlink" width="322" height="322" viewBox="0 0 322 322"><defs><clipPath id="a"><rect width="203.769" height="71.84" fill="none"/></clipPath></defs><g transform="translate(-354.884 -40.92)"><g transform="translate(413.884 165.92)" clip-path="url(#a)"><path d="M24.24,32.842S18.291,23.322,29,17.373c8.627-4.611,14.874-1.041,14.874-1.041a31.981,31.981,0,0,0-13.386,5.206,13.406,13.406,0,0,0-6.247,11.3" transform="translate(11.01 7.317)" fill="#fff"/><path d="M59.63,18.418H50.26v6.4h8.924v3.421H50.26V38.647H45.5V14.7H59.63Z" transform="translate(22.175 7.164)" fill="#fff"/><path d="M78.228,28.981c0,3.272-.892,5.949-2.826,7.586a10.261,10.261,0,0,1-7.288,2.38,10.411,10.411,0,0,1-7.139-2.38C59.041,34.931,58,32.253,58,28.981V15h4.76V29.427a5.646,5.646,0,0,0,1.487,4.313,4.838,4.838,0,0,0,3.867,1.487,5.511,5.511,0,0,0,4.165-1.487,6.243,6.243,0,0,0,1.339-4.313V15h4.462V29.13Z" transform="translate(28.267 7.31)" fill="#fff"/><path d="M96.916,38.549H92.751L79.662,22.486V38.4H75.2V15.049h4.165L92.156,30.517V14.9h4.462V38.549Z" transform="translate(36.65 7.262)" fill="#fff"/><path d="M111.546,34.687a11.3,11.3,0,0,0,3.123-8.032,11.614,11.614,0,0,0-3.123-8.032,12.492,12.492,0,0,0-9.519-3.718H93.4V38.554h8.627a12.431,12.431,0,0,0,9.519-3.867M107.53,21.3a7.423,7.423,0,0,1,1.934,5.355,7.789,7.789,0,0,1-1.934,5.5q-2.231,2.677-6.693,2.677H98.16V18.475h2.677q4.462,0,6.693,2.677Z" transform="translate(45.52 7.257)" fill="#fff" fill-rule="evenodd"/><path d="M125.374,38.549H110.5V14.9h14.576v3.57H115.26v6.247h9.519v3.718H115.26v6.544h10.114v3.57Z" transform="translate(53.854 7.262)" fill="#fff"/><path d="M138.179,38.549h5.206l-3.272-5.355-.744-1.339a17.626,17.626,0,0,0-4.016-4.76,5.952,5.952,0,0,0,2.826-2.231,6.1,6.1,0,0,0,1.041-3.272,6.281,6.281,0,0,0-2.082-4.908,9,9,0,0,0-5.8-1.785H123.9V38.549h4.76V28.435h.744a3.027,3.027,0,0,1,2.231.892,14.6,14.6,0,0,1,3.421,4.313l2.975,4.908ZM133.27,19.213a3.064,3.064,0,0,1,1.041,2.529,2.974,2.974,0,0,1-1.041,2.677,4.461,4.461,0,0,1-2.975.892h-1.487V18.47H130.3a4.458,4.458,0,0,1,2.975.744" transform="translate(60.384 7.262)" fill="#fff" fill-rule="evenodd"/><path d="M56.406,4.016c-2.529,1.19-6.544,4.462-6.842,8.032a11.779,11.779,0,0,1,5.652-2.082c4.908-.744,9.519-5.057,9.817-4.611.149.446-3.57,5.5-7.883,6.247-1.785.3-4.462.595-6.247,1.487L49.415,14.13h-.149l-2.082,1.487C48.523,6.991,37.814,4.611,32.013,5.8c1.785,1.934,2.231,4.462,3.718,6.693A12.007,12.007,0,0,0,39.6,16.361,6.914,6.914,0,0,0,43.02,17.7a1.367,1.367,0,0,0,1.487-1.339c.3-1.041-.446-1.934-1.19-2.677L41.086,11.3a11.933,11.933,0,0,0-1.487-1.19L36.624,8.478c.149-.3,1.785,0,1.934,0a7.891,7.891,0,0,1,2.529,1.19,10.405,10.405,0,0,1,2.677,2.082A12.758,12.758,0,0,1,45.7,14.725a2.868,2.868,0,0,1,0,1.934c0,.744-.595,1.339-.892,1.934l-1.041,2.082-1.041,2.677-.446,1.487a28.518,28.518,0,0,1-4.908,8.18c-2.529,2.975-6.247,4.462-9.668,5.949,2.082-.3,7.734-1.339,10.709-4.165s4.76-6.842,6.4-10.412c1.041-2.677,2.677-8.329,5.949-8.775,1.636-.149,3.718.595,5.354.595a15.578,15.578,0,0,0,4.462-.744,11.615,11.615,0,0,0,6.1-5.5A23.8,23.8,0,0,0,68.6,5.5c.446-1.487.744-4.165,1.785-5.5-4.462,2.38-9.37,2.082-13.832,4.016" transform="translate(13.5 0)" fill="#fff"/><path d="M30.342,41.371c-1.487,1.636-1.934,3.272-1.487,4.462-.3,0-.446-.3-.744-.892L23.649,34.083H10.412L5.949,44.94c-.3.892-.446,1.041-1.487,1.041H1.041c-.3,0-1.041,0-1.041-.744L.3,44.2,14.13,9.987A2.134,2.134,0,0,1,16.51,8.5H18c1.487,0,1.785.744,2.38,1.934l11.9,29.45a4.832,4.832,0,0,0-1.934,1.487M16.956,16.383,11.9,29.472H22.013L16.807,16.383Z" transform="translate(0 4.143)" fill="#fff" fill-rule="evenodd"/><path d="M51.98,46.9a8.72,8.72,0,0,0-1.934-2.826,11.057,11.057,0,0,0-3.123-1.934,11.356,11.356,0,0,0-4.016-.744H30.265L28.183,40.8a4.463,4.463,0,0,1-1.636-1.041,1.625,1.625,0,0,1-.595-1.785c.3-1.487,2.975-2.231,4.462-2.231h3.421c5.5-.3,10.114.3,14.13-2.975,6.544-5.5.595-15.171.595-15.171.3.3,0,1.487,0,1.934l-.446,3.421A11.455,11.455,0,0,1,45.287,29.5c-3.272,3.272-7.288,4.016-11.6,4.462-4.016.3-9.073.446-11.006,4.76a5.952,5.952,0,0,0,.149,5.206c2.38,4.462,9.519,2.826,13.386,2.826l5.949.149,3.57,1.041a4.52,4.52,0,0,1,1.785,1.934A5.421,5.421,0,0,1,48.262,53a7.017,7.017,0,0,1-1.636,4.908c-4.016,4.016-12.048,4.313-17.253,1.934a11.239,11.239,0,0,1-3.57-2.677,5.953,5.953,0,0,1-1.19-3.867,20.466,20.466,0,0,1,.744-4.016l-2.231,2.231a10.127,10.127,0,0,0-1.487,3.123,5.81,5.81,0,0,0,.595,3.867c2.826,4.165,9.073,4.76,13.535,4.76,6.4,0,12.494-2.231,15.617-8.032A9.817,9.817,0,0,0,51.98,46.9" transform="translate(10.489 8.578)" fill="#fff"/></g><rect width="322" height="322" transform="translate(354.884 40.92)" fill="none"/></g></svg>